<?xml version="1.0" encoding="UTF-8"?>
<!DOCTYPE svg PUBLIC "-//W3C//DTD SVG 1.1//EN" "http://www.w3.org/Graphics/SVG/1.1/DTD/svg11.dtd">
<svg xmlns="http://www.w3.org/2000/svg" version="1.1" width="512px" height="512px" style="shape-rendering:geometricPrecision; text-rendering:geometricPrecision; image-rendering:optimizeQuality; fill-rule:evenodd; clip-rule:evenodd" xmlns:xlink="http://www.w3.org/1999/xlink">
<g><path style="opacity:0.004" fill="#fc9851" d="M 27.5,19.5 C 31.0003,19.4954 32.5003,21.1621 32,24.5C 29.5852,23.5887 28.0852,21.922 27.5,19.5 Z"/></g>
<g><path style="opacity:0.004" fill="#fc9851" d="M 203.5,31.5 C 204.5,31.5 205.5,31.5 206.5,31.5C 206.949,33.9775 206.283,35.9775 204.5,37.5C 200.867,36.0593 200.534,34.0593 203.5,31.5 Z"/></g>
<g><path style="opacity:0.029" fill="#ee9051" d="M 446.5,258.5 C 446.167,258.5 445.833,258.5 445.5,258.5C 445.5,258.167 445.5,257.833 445.5,257.5C 445.358,247.599 444.358,237.932 442.5,228.5C 442.5,227.833 442.5,227.167 442.5,226.5C 437.166,201.836 428.999,178.17 418,155.5C 415.486,152.322 412.986,149.156 410.5,146C 427.801,111.557 436.968,75.0575 438,36.5C 435.794,32.8748 432.627,31.7081 428.5,33C 379.035,44.4207 333.368,64.2541 291.5,92.5C 290.833,86.8333 290.167,81.1667 289.5,75.5C 288.342,72.1783 286.008,70.0117 282.5,69C 277.655,67.1312 272.655,65.9646 267.5,65.5C 265.673,56.1883 263.84,46.8549 262,37.5C 258.995,34.084 255.661,33.7507 252,36.5C 250.743,45.1629 249.576,53.8295 248.5,62.5C 242.509,62.0343 236.509,61.701 230.5,61.5C 230.611,60.8826 230.944,60.3826 231.5,60C 236.489,59.5007 241.489,59.3341 246.5,59.5C 247.51,51.4094 248.677,43.4094 250,35.5C 253.484,32.8374 257.317,32.1708 261.5,33.5C 262.584,34.6651 263.417,35.9984 264,37.5C 264.639,45.6826 266.472,53.5159 269.5,61C 270.272,62.221 271.272,63.221 272.5,64C 288.131,64.8691 294.964,73.0358 293,88.5C 331.961,63.5483 373.794,45.0483 418.5,33C 423.1,32.5346 427.6,31.7013 432,30.5C 439.446,32.1523 442.279,36.819 440.5,44.5C 437.573,80.2543 428.573,114.254 413.5,146.5C 418.002,151.17 421.502,156.503 424,162.5C 434.554,186.167 441.888,210.834 446,236.5C 446.5,243.826 446.666,251.159 446.5,258.5 Z"/></g>
<g><path style="opacity:1" fill="#1f2128" d="M 442.5,226.5 C 441.105,224.946 440.439,225.279 440.5,227.5C 441.472,230.464 441.638,233.464 441,236.5C 440.641,233.456 439.974,233.122 439,235.5C 438.617,234.944 438.117,234.611 437.5,234.5C 432.458,207.179 423.791,181.012 411.5,156C 406.667,153.418 402,150.585 397.5,147.5C 397.167,147.833 396.833,148.167 396.5,148.5C 413.27,174.394 423.603,202.727 427.5,233.5C 425.716,238.567 424.716,243.9 424.5,249.5C 398.5,249.5 372.5,249.5 346.5,249.5C 371.995,248.502 397.661,248.169 423.5,248.5C 420.871,210.109 408.538,175.275 386.5,144C 376.938,139.302 367.438,134.469 358,129.5C 355.268,131.452 352.435,133.285 349.5,135C 347.833,135.667 346.167,135.667 344.5,135C 325.815,126.155 306.815,118.155 287.5,111C 283.393,110.59 280.727,112.424 279.5,116.5C 278.842,115.602 278.176,114.602 277.5,113.5C 276.833,113.833 276.167,114.167 275.5,114.5C 274.735,113.388 273.735,112.721 272.5,112.5C 275.086,109.642 277.42,106.642 279.5,103.5C 280.488,102.205 281.488,100.872 282.5,99.5C 283.492,92.0182 283.825,84.3516 283.5,76.5C 274.927,74.3478 266.26,72.5145 257.5,71C 249.173,70.5003 240.84,70.3336 232.5,70.5C 232.5,73.1667 232.5,75.8333 232.5,78.5C 232.5,89.8333 232.5,101.167 232.5,112.5C 243.5,112.5 254.5,112.5 265.5,112.5C 267.379,113.341 269.379,113.675 271.5,113.5C 272.091,114.151 272.757,114.818 273.5,115.5C 272.209,116.527 272.209,117.527 273.5,118.5C 265.804,118.169 258.138,118.503 250.5,119.5C 263.948,141.676 271.448,165.676 273,191.5C 272.617,190.944 272.117,190.611 271.5,190.5C 271.598,188.447 270.931,186.78 269.5,185.5C 269.066,181.052 267.732,177.052 265.5,173.5C 265.672,172.508 265.338,171.842 264.5,171.5C 262.773,163.248 260.44,155.248 257.5,147.5C 257.34,145.847 256.674,144.514 255.5,143.5C 252.318,135.102 248.984,126.769 245.5,118.5C 239.824,118.666 234.157,118.499 228.5,118C 227.619,117.292 226.953,116.458 226.5,115.5C 226.334,109.158 226.5,102.825 227,96.5C 228.342,95.0977 229.176,95.4311 229.5,97.5C 228.844,101.459 229.01,105.459 230,109.5C 230.667,97.8333 230.667,86.1667 230,74.5C 229.667,74.1667 229.333,73.8333 229,73.5C 228.545,76.8536 228.045,80.1869 227.5,83.5C 225.901,83.7678 224.568,83.4345 223.5,82.5C 223.833,82.5 224.167,82.5 224.5,82.5C 225.748,81.6661 226.415,80.3328 226.5,78.5C 226.489,76.9549 226.156,75.6216 225.5,74.5C 224.373,68.9141 226.04,64.5808 230.5,61.5C 236.509,61.701 242.509,62.0343 248.5,62.5C 249.576,53.8295 250.743,45.1629 252,36.5C 255.661,33.7507 258.995,34.084 262,37.5C 263.84,46.8549 265.673,56.1883 267.5,65.5C 272.655,65.9646 277.655,67.1312 282.5,69C 286.008,70.0117 288.342,72.1783 289.5,75.5C 289.171,81.5368 289.504,87.5368 290.5,93.5C 291.107,93.3764 291.44,93.0431 291.5,92.5C 333.368,64.2541 379.035,44.4207 428.5,33C 432.627,31.7081 435.794,32.8748 438,36.5C 436.968,75.0575 427.801,111.557 410.5,146C 412.986,149.156 415.486,152.322 418,155.5C 428.999,178.17 437.166,201.836 442.5,226.5 Z"/></g>
<g><path style="opacity:0.999" fill="#20222a" d="M 223.5,82.5 C 224.568,83.4345 225.901,83.7678 227.5,83.5C 228.045,80.1869 228.545,76.8536 229,73.5C 229.333,73.8333 229.667,74.1667 230,74.5C 230.667,86.1667 230.667,97.8333 230,109.5C 229.01,105.459 228.844,101.459 229.5,97.5C 229.176,95.4311 228.342,95.0977 227,96.5C 226.5,102.825 226.334,109.158 226.5,115.5C 225.511,110.025 225.178,104.358 225.5,98.5C 203.728,99.5527 183.728,106.053 165.5,118C 155.368,125.633 145.702,133.799 136.5,142.5C 134.406,143.518 132.406,144.518 130.5,145.5C 129.167,145.833 127.833,146.167 126.5,146.5C 125.5,146.167 124.833,145.5 124.5,144.5C 139.876,125.296 158.876,110.796 181.5,101C 175.553,101.242 169.886,102.909 164.5,106C 150.982,115.192 138.482,125.692 127,137.5C 124.946,140.047 123.113,142.714 121.5,145.5C 110.651,153.555 102.985,163.889 98.5,176.5C 98.1961,177.15 97.8627,177.817 97.5,178.5C 99.7427,179.474 102.076,179.808 104.5,179.5C 106.969,180.317 109.635,180.817 112.5,181C 111.527,186.407 111.193,191.907 111.5,197.5C 108.203,199.64 104.536,200.973 100.5,201.5C 99.1667,201.5 97.8333,201.5 96.5,201.5C 92.066,200.795 88.066,199.461 84.5,197.5C 96.8384,166.48 114.005,138.48 136,113.5C 137.167,109.333 135.667,107.833 131.5,109C 116.371,120.462 102.871,133.629 91,148.5C 87.8735,160.704 85.2068,173.038 83,185.5C 76.2705,203.173 71.1039,221.173 67.5,239.5C 67.067,236.834 66.567,234.168 66,231.5C 65.7679,232.737 65.2679,233.737 64.5,234.5C 67.0571,223.553 69.5571,212.553 72,201.5C 76.3224,191.233 78.9891,180.567 80,169.5C 75.514,180.448 71.1807,191.448 67,202.5C 64.2011,211.029 62.0344,219.696 60.5,228.5C 52.4513,254.987 49.9513,281.987 53,309.5C 65.773,353.709 67.773,353.043 59,307.5C 58.1735,294.993 58.3401,282.66 59.5,270.5C 61.4847,279.842 62.6514,289.509 63,299.5C 63.1708,291.323 63.6708,283.323 64.5,275.5C 63.8555,301.866 66.6888,327.866 73,353.5C 78.8019,372.097 86.9686,389.43 97.5,405.5C 92.5726,403.027 88.7393,398.694 86,392.5C 82.3716,389.943 78.8716,387.277 75.5,384.5C 73.9589,385.286 72.6256,386.286 71.5,387.5C 72.4349,384.887 72.6015,382.221 72,379.5C 60.0209,354.901 51.5209,329.234 46.5,302.5C 46.3496,293.143 46.683,283.809 47.5,274.5C 48.3793,260.012 50.3793,245.678 53.5,231.5C 60.0669,207.598 67.7336,183.931 76.5,160.5C 72.6485,151.781 69.4818,142.781 67,133.5C 63.1473,114.414 59.6473,95.4145 56.5,76.5C 55.6303,67.8463 55.4637,59.1797 56,50.5C 56.956,49.1059 58.2894,48.4393 60,48.5C 75.341,54.7547 90.1743,61.9214 104.5,70C 119.615,79.4559 134.449,89.2893 149,99.5C 172.736,89.0843 197.569,83.4176 223.5,82.5 Z"/></g>
<g><path style="opacity:1" fill="#daebe7" d="M 412.5,47.5 C 413.978,47.238 415.311,47.5713 416.5,48.5C 400.078,72.2662 381.078,93.9328 359.5,113.5C 349.337,104.841 339.004,96.341 328.5,88C 339.394,80.1338 351.061,73.4671 363.5,68C 379.857,60.8371 396.191,54.0037 412.5,47.5 Z"/></g>
<g><path style="opacity:0.239" fill="#cfc7bf" d="M 256.5,51.5 C 258.102,55.2393 259.102,59.2393 259.5,63.5C 258.167,63.5 256.833,63.5 255.5,63.5C 255.646,59.4809 255.979,55.4809 256.5,51.5 Z"/></g>
<g><path style="opacity:1" fill="#daeae7" d="M 69.5,62.5 C 91.0397,74.8628 111.373,89.0295 130.5,105C 124.352,110.571 118.019,115.904 111.5,121C 110.241,121.982 108.908,122.315 107.5,122C 92.1914,103.89 79.5247,84.0564 69.5,62.5 Z"/></g>
<g><path style="opacity:1" fill="#707278" d="M 422.5,57.5 C 423.124,57.9169 423.457,58.5836 423.5,59.5C 415.55,86.6856 406.216,113.352 395.5,139.5C 386.96,136.232 378.627,132.398 370.5,128C 369.313,126.981 368.313,125.814 367.5,124.5C 387.746,103.602 406.08,81.2682 422.5,57.5 Z"/></g>
<g><path style="opacity:1" fill="#767b83" d="M 282.5,99.5 C 282.5,95.8333 282.5,92.1667 282.5,88.5C 273.808,88.7012 270.641,93.0345 273,101.5C 274.897,103.016 277.064,103.683 279.5,103.5C 277.42,106.642 275.086,109.642 272.5,112.5C 272.5,113.167 272.167,113.5 271.5,113.5C 269.379,113.675 267.379,113.341 265.5,112.5C 265.5,112.167 265.5,111.833 265.5,111.5C 265.943,102.392 265.443,93.3921 264,84.5C 260.785,82.5395 257.285,81.3728 253.5,81C 246.854,79.9314 240.188,79.0981 233.5,78.5C 233.167,78.5 232.833,78.5 232.5,78.5C 232.5,75.8333 232.5,73.1667 232.5,70.5C 240.84,70.3336 249.173,70.5003 257.5,71C 266.26,72.5145 274.927,74.3478 283.5,76.5C 283.825,84.3516 283.492,92.0182 282.5,99.5 Z"/></g>
<g><path style="opacity:0.318" fill="#87563e" d="M 225.5,74.5 C 226.156,75.6216 226.489,76.9549 226.5,78.5C 226.415,80.3328 225.748,81.6661 224.5,82.5C 225.388,79.9455 225.721,77.2788 225.5,74.5 Z"/></g>
<g><path style="opacity:1" fill="#ddeeea" d="M 233.5,78.5 C 240.188,79.0981 246.854,79.9314 253.5,81C 257.285,81.3728 260.785,82.5395 264,84.5C 265.443,93.3921 265.943,102.392 265.5,111.5C 254.833,111.5 244.167,111.5 233.5,111.5C 233.5,100.5 233.5,89.5 233.5,78.5 Z"/></g>
<g><path style="opacity:0.004" fill="#fc9851" d="M 294.5,81.5 C 295.833,82.1667 295.833,82.1667 294.5,81.5 Z"/></g>
<g><path style="opacity:0.009" fill="#f19252" d="M 230.5,61.5 C 226.04,64.5808 224.373,68.9141 225.5,74.5C 225.721,77.2788 225.388,79.9455 224.5,82.5C 224.167,82.5 223.833,82.5 223.5,82.5C 197.569,83.4176 172.736,89.0843 149,99.5C 134.449,89.2893 119.615,79.4559 104.5,70C 90.1743,61.9214 75.341,54.7547 60,48.5C 58.2894,48.4393 56.956,49.1059 56,50.5C 55.4637,59.1797 55.6303,67.8463 56.5,76.5C 54.8326,73.7385 53.8326,70.5719 53.5,67C 54.727,65.4126 54.3937,64.0793 52.5,63C 53.4657,60.0672 53.4657,57.4006 52.5,55C 53.2546,52.8252 54.088,50.6585 55,48.5C 56.4733,46.9929 58.3066,46.3262 60.5,46.5C 75.0036,51.8168 89.0036,58.3168 102.5,66C 115.97,74.2378 129.303,82.7378 142.5,91.5C 142.833,91.3333 143.167,91.1667 143.5,91C 141.963,89.8904 141.297,88.3904 141.5,86.5C 146.696,86.209 149.529,88.5423 150,93.5C 146.922,94.8489 146.922,95.8489 150,96.5C 173.261,87.3138 197.427,81.8138 222.5,80C 223.647,75.3905 223.647,71.0572 222.5,67C 224.008,65.4933 225.341,63.8267 226.5,62C 227.793,61.51 229.127,61.3433 230.5,61.5 Z"/></g>
<g><path style="opacity:0.365" fill="#744b39" d="M 289.5,75.5 C 290.167,81.1667 290.833,86.8333 291.5,92.5C 291.44,93.0431 291.107,93.3764 290.5,93.5C 289.504,87.5368 289.171,81.5368 289.5,75.5 Z"/></g>
<g><path style="opacity:1" fill="#d8eae6" d="M 324.5,89.5 C 334.473,98.7989 344.806,107.799 355.5,116.5C 352.683,119.818 349.683,122.985 346.5,126C 345.167,126.667 343.833,126.667 342.5,126C 328.116,119.928 313.782,113.762 299.5,107.5C 307.333,100.755 315.666,94.7553 324.5,89.5 Z"/></g>
<g><path style="opacity:1" fill="#ddeeeb" d="M 282.5,99.5 C 281.488,100.872 280.488,102.205 279.5,103.5C 277.064,103.683 274.897,103.016 273,101.5C 270.641,93.0345 273.808,88.7012 282.5,88.5C 282.5,92.1667 282.5,95.8333 282.5,99.5 Z"/></g>
<g><path style="opacity:1" fill="#d3e4e2" d="M 73.5,93.5 C 80.2036,103.712 87.5369,113.545 95.5,123C 90.5713,124.81 85.5713,126.31 80.5,127.5C 78.1641,116.158 75.8308,104.825 73.5,93.5 Z"/></g>
<g><path style="opacity:1" fill="#f3f3f4" d="M 84.5,197.5 C 73.8078,223.966 68.4745,251.633 68.5,280.5C 68.5967,295.383 69.5967,310.05 71.5,324.5C 71.5,324.833 71.5,325.167 71.5,325.5C 74.301,340.721 78.6343,355.388 84.5,369.5C 85.6172,373.734 87.2839,377.734 89.5,381.5C 97.6215,395.573 106.621,409.073 116.5,422C 116.272,422.399 115.938,422.565 115.5,422.5C 108.843,417.509 102.843,411.843 97.5,405.5C 86.9686,389.43 78.8019,372.097 73,353.5C 66.6888,327.866 63.8555,301.866 64.5,275.5C 65.0608,263.467 66.0608,251.467 67.5,239.5C 71.1039,221.173 76.2705,203.173 83,185.5C 85.2068,173.038 87.8735,160.704 91,148.5C 102.871,133.629 116.371,120.462 131.5,109C 135.667,107.833 137.167,109.333 136,113.5C 114.005,138.48 96.8384,166.48 84.5,197.5 Z"/></g>
<g><path style="opacity:1" fill="#acb6bb" d="M 232.5,78.5 C 232.833,78.5 233.167,78.5 233.5,78.5C 233.5,89.5 233.5,100.5 233.5,111.5C 244.167,111.5 254.833,111.5 265.5,111.5C 265.5,111.833 265.5,112.167 265.5,112.5C 254.5,112.5 243.5,112.5 232.5,112.5C 232.5,101.167 232.5,89.8333 232.5,78.5 Z"/></g>
<g><path style="opacity:0.009" fill="#f29251" d="M 56.5,76.5 C 59.6473,95.4145 63.1473,114.414 67,133.5C 69.4818,142.781 72.6485,151.781 76.5,160.5C 67.7336,183.931 60.0669,207.598 53.5,231.5C 53.5,230.5 53.5,229.5 53.5,228.5C 54.9654,220.548 56.6321,212.881 58.5,205.5C 62.6011,194.344 66.6011,182.677 70.5,170.5C 70.3333,169.833 70.1667,169.167 70,168.5C 68.951,170.107 67.451,170.773 65.5,170.5C 65.1392,164.407 65.6392,158.407 67,152.5C 67.7504,151.874 68.5838,151.374 69.5,151C 66.2301,150.876 64.5634,149.209 64.5,146C 65.1667,144.333 65.8333,142.667 66.5,141C 63.0857,125.023 59.7524,109.023 56.5,93C 57.2135,91.6569 56.8802,90.3236 55.5,89C 56.9542,85.5074 56.6208,82.1741 54.5,79C 55.3805,78.2917 56.0472,77.4584 56.5,76.5 Z"/></g>
<g><path style="opacity:1" fill="#4a515a" d="M 346.5,249.5 C 344.896,250.287 344.229,251.62 344.5,253.5C 371.167,253.5 397.833,253.5 424.5,253.5C 424.5,255.833 424.5,258.167 424.5,260.5C 405.735,261.155 387.069,261.821 368.5,262.5C 367.5,262.5 366.5,262.5 365.5,262.5C 365.5,263.833 365.5,265.167 365.5,266.5C 384.993,267.497 404.66,267.83 424.5,267.5C 424.5,270.5 424.5,273.5 424.5,276.5C 407.991,276.17 391.658,276.504 375.5,277.5C 372.215,277.269 369.715,278.603 368,281.5C 363.898,288.041 360.064,294.708 356.5,301.5C 356.757,303.692 357.757,305.359 359.5,306.5C 374.786,312.347 382.119,323.681 381.5,340.5C 381.213,361.316 376.379,380.983 367,399.5C 360.256,400.479 353.422,400.812 346.5,400.5C 343.609,392.761 338.609,386.594 331.5,382C 324.663,378.868 319.163,380.368 315,386.5C 312.905,390.452 311.405,394.618 310.5,399C 310.615,400.895 311.282,402.562 312.5,404C 329.111,405.124 345.777,405.957 362.5,406.5C 352.359,418.741 339.359,426.074 323.5,428.5C 308.703,430.664 293.87,432.664 279,434.5C 277.167,434.167 275.333,433.833 273.5,433.5C 273.863,432.817 274.196,432.15 274.5,431.5C 281.968,422.589 288.468,412.923 294,402.5C 313.6,361.699 322.767,318.532 321.5,273C 322.154,222.011 311.32,173.844 289,128.5C 286.35,124.025 283.183,120.025 279.5,116.5C 280.727,112.424 283.393,110.59 287.5,111C 306.815,118.155 325.815,126.155 344.5,135C 346.167,135.667 347.833,135.667 349.5,135C 352.435,133.285 355.268,131.452 358,129.5C 367.438,134.469 376.938,139.302 386.5,144C 408.538,175.275 420.871,210.109 423.5,248.5C 397.661,248.169 371.995,248.502 346.5,249.5 Z"/></g>
<g><path style="opacity:1" fill="#e1e3e4" d="M 124.5,144.5 C 123.542,144.953 122.708,145.619 122,146.5C 121.601,146.272 121.435,145.938 121.5,145.5C 123.113,142.714 124.946,140.047 127,137.5C 138.482,125.692 150.982,115.192 164.5,106C 169.886,102.909 175.553,101.242 181.5,101C 158.876,110.796 139.876,125.296 124.5,144.5 Z"/></g>
<g><path style="opacity:1" fill="#e1e4e4" d="M 95.5,127.5 C 97.604,127.201 99.604,127.534 101.5,128.5C 99.1667,131.833 96.8333,135.167 94.5,138.5C 91.7362,140.608 88.7362,140.941 85.5,139.5C 84.1486,136.825 83.8153,134.159 84.5,131.5C 88.5374,130.907 92.204,129.574 95.5,127.5 Z"/></g>
<g><path style="opacity:1" fill="#f7f8f9" d="M 169.5,223.5 C 179.462,211.704 190.295,200.704 202,190.5C 205.111,176.773 208.277,163.106 211.5,149.5C 203.804,149.169 196.138,149.503 188.5,150.5C 190.111,153.387 191.444,156.387 192.5,159.5C 190.78,170.048 188.28,180.381 185,190.5C 177.373,198.293 169.539,205.96 161.5,213.5C 151.887,214.474 142.22,214.808 132.5,214.5C 131.314,207.784 129.814,201.117 128,194.5C 127.502,191.183 127.335,187.85 127.5,184.5C 128.475,175.987 130.308,167.653 133,159.5C 135.167,156 138,153.167 141.5,151C 137.901,151.176 134.234,151.509 130.5,152C 126.474,158.578 124.141,165.745 123.5,173.5C 122.023,175.807 120.023,177.64 117.5,179C 113.179,179.499 108.846,179.666 104.5,179.5C 102.076,179.808 99.7427,179.474 97.5,178.5C 97.8627,177.817 98.1961,177.15 98.5,176.5C 104.042,175.007 109.709,174.007 115.5,173.5C 118.599,164.188 122.265,155.188 126.5,146.5C 127.833,146.167 129.167,145.833 130.5,145.5C 160.787,143.688 191.12,143.022 221.5,143.5C 219.994,160.898 215.828,177.565 209,193.5C 196.79,204.892 183.623,214.892 169.5,223.5 Z"/></g>
<g><path style="opacity:1" fill="#f2f3f4" d="M 255.5,143.5 C 256.674,144.514 257.34,145.847 257.5,147.5C 256.391,148.29 255.058,148.79 253.5,149C 247.167,149.333 240.833,149.667 234.5,150C 233.206,157.093 232.206,164.259 231.5,171.5C 242.5,171.5 253.5,171.5 264.5,171.5C 265.338,171.842 265.672,172.508 265.5,173.5C 265.5,174.5 265.5,175.5 265.5,176.5C 252.603,177.579 239.769,177.579 227,176.5C 226.678,166.382 227.678,156.382 230,146.5C 230.903,145.299 232.069,144.465 233.5,144C 240.826,143.5 248.159,143.334 255.5,143.5 Z"/></g>
<g><path style="opacity:1" fill="#464f59" d="M 257.5,147.5 C 260.44,155.248 262.773,163.248 264.5,171.5C 253.5,171.5 242.5,171.5 231.5,171.5C 232.206,164.259 233.206,157.093 234.5,150C 240.833,149.667 247.167,149.333 253.5,149C 255.058,148.79 256.391,148.29 257.5,147.5 Z"/></g>
<g><path style="opacity:1" fill="#3e4853" d="M 139.5,170.5 C 138.995,173.841 138.828,177.174 139,180.5C 139.308,179.692 139.808,179.025 140.5,178.5C 141.281,179.729 141.781,181.062 142,182.5C 142.191,180.292 142.691,178.292 143.5,176.5C 143.77,190.624 150.103,194.457 162.5,188C 171.239,181.013 173.906,172.347 170.5,162C 164.167,161.333 157.833,161.333 151.5,162C 149.548,162.366 147.882,163.199 146.5,164.5C 145.343,162.862 144.176,161.196 143,159.5C 142.617,160.056 142.117,160.389 141.5,160.5C 143.544,156.784 146.544,153.951 150.5,152C 159.851,151.168 169.184,151.335 178.5,152.5C 180.006,154.655 181.006,156.988 181.5,159.5C 179.945,168.386 177.779,177.052 175,185.5C 171.917,190.588 168.083,195.088 163.5,199C 155.173,199.5 146.84,199.666 138.5,199.5C 135.766,189.627 136.1,179.961 139.5,170.5 Z"/></g>
<g><path style="opacity:1" fill="#4b505a" d="M 273.5,118.5 C 274.833,119.167 275.833,120.167 276.5,121.5C 278.258,124.374 277.592,126.541 274.5,128C 276.026,130.706 278.026,133.039 280.5,135C 278.956,135.29 277.623,135.956 276.5,137C 277.701,137.903 278.535,139.069 279,140.5C 279.308,139.692 279.808,139.025 280.5,138.5C 281.648,140.149 282.981,141.649 284.5,143C 283.377,144.044 282.044,144.71 280.5,145C 282.087,145.862 283.754,146.529 285.5,147C 283.847,151.029 285.18,153.695 289.5,155C 288.552,155.483 287.552,155.649 286.5,155.5C 287.052,157.331 287.052,158.997 286.5,160.5C 288.636,161.472 289.803,163.139 290,165.5C 290.333,163.833 290.667,162.167 291,160.5C 292.333,164.166 293.666,167.833 295,171.5C 296.666,170.66 296.833,171.16 295.5,173C 296.408,175.232 297.408,177.399 298.5,179.5C 298.392,180.442 298.059,181.275 297.5,182C 299.387,183.969 300.72,186.302 301.5,189C 301.167,189.333 300.833,189.667 300.5,190C 301.687,191.019 302.687,192.186 303.5,193.5C 302.566,201.428 302.233,209.262 302.5,217C 304.71,222.068 304.543,226.902 302,231.5C 302.009,237.33 301.842,242.83 301.5,248C 302.542,253.602 303.875,259.435 305.5,265.5C 304.068,267.816 303.068,270.316 302.5,273C 302.539,275.297 302.872,277.63 303.5,280C 300.785,291.197 299.285,302.697 299,314.5C 299.046,319.044 297.546,322.877 294.5,326C 295.022,326.561 295.355,327.228 295.5,328C 294.172,333.432 293.172,338.932 292.5,344.5C 290.3,346.253 289.133,348.586 289,351.5C 287.434,350.939 286.101,351.606 285,353.5C 283.945,357.278 282.112,360.611 279.5,363.5C 278.575,364.641 277.741,364.641 277,363.5C 276.71,365.044 276.044,366.377 275,367.5C 274.667,366.833 274.333,366.167 274,365.5C 271.563,368.149 270.23,367.483 270,363.5C 269.79,365.058 269.29,366.391 268.5,367.5C 269.058,363.323 269.724,359.156 270.5,355C 270.492,353.293 270.158,351.793 269.5,350.5C 275.223,313.005 276.89,275.338 274.5,237.5C 274.638,226.632 273.971,215.965 272.5,205.5C 272.249,200.493 271.916,195.493 271.5,190.5C 272.117,190.611 272.617,190.944 273,191.5C 271.448,165.676 263.948,141.676 250.5,119.5C 258.138,118.503 265.804,118.169 273.5,118.5 Z"/></g>
<g><path style="opacity:1" fill="#424a54" d="M 124.5,144.5 C 124.833,145.5 125.5,146.167 126.5,146.5C 122.265,155.188 118.599,164.188 115.5,173.5C 109.709,174.007 104.042,175.007 98.5,176.5C 102.985,163.889 110.651,153.555 121.5,145.5C 121.435,145.938 121.601,146.272 122,146.5C 122.708,145.619 123.542,144.953 124.5,144.5 Z"/></g>
<g><path style="opacity:1" fill="#f3f5f5" d="M 143.5,176.5 C 143.877,172.327 144.877,168.327 146.5,164.5C 147.882,163.199 149.548,162.366 151.5,162C 157.833,161.333 164.167,161.333 170.5,162C 173.906,172.347 171.239,181.013 162.5,188C 150.103,194.457 143.77,190.624 143.5,176.5 Z"/></g>
<g><path style="opacity:1" fill="#2c3542" d="M 146.5,164.5 C 144.877,168.327 143.877,172.327 143.5,176.5C 142.691,178.292 142.191,180.292 142,182.5C 141.781,181.062 141.281,179.729 140.5,178.5C 139.808,179.025 139.308,179.692 139,180.5C 138.828,177.174 138.995,173.841 139.5,170.5C 139.788,167.061 140.454,163.728 141.5,160.5C 142.117,160.389 142.617,160.056 143,159.5C 144.176,161.196 145.343,162.862 146.5,164.5 Z"/></g>
<g><path style="opacity:1" fill="#333d49" d="M 127.5,184.5 C 126.9,180.671 125.566,177.004 123.5,173.5C 124.141,165.745 126.474,158.578 130.5,152C 134.234,151.509 137.901,151.176 141.5,151C 138,153.167 135.167,156 133,159.5C 130.308,167.653 128.475,175.987 127.5,184.5 Z"/></g>
<g><path style="opacity:1" fill="#38414d" d="M 154.5,166.5 C 157.85,166.335 161.183,166.502 164.5,167C 165.097,168.062 165.43,169.228 165.5,170.5C 164.96,175.203 163.293,179.37 160.5,183C 157.312,184.383 154.146,184.549 151,183.5C 150.333,179.167 150.333,174.833 151,170.5C 152.376,169.295 153.542,167.962 154.5,166.5 Z"/></g>
<g><path style="opacity:1" fill="#efeeef" d="M 154.5,171.5 C 161.371,170.953 162.704,173.12 158.5,178C 156.527,178.495 154.527,178.662 152.5,178.5C 152.166,175.812 152.832,173.479 154.5,171.5 Z"/></g>
<g><path style="opacity:0.004" fill="#fc9851" d="M 62.5,178.5 C 63.224,180.218 63.8906,182.052 64.5,184C 62.3775,187.951 59.7108,191.451 56.5,194.5C 55.3861,193.277 55.2195,191.944 56,190.5C 57.8921,186.298 60.0588,182.298 62.5,178.5 Z"/></g>
<g><path style="opacity:1" fill="#f2f1f2" d="M 269.5,185.5 C 270.931,186.78 271.598,188.447 271.5,190.5C 271.916,195.493 272.249,200.493 272.5,205.5C 272.512,216.359 273.179,227.026 274.5,237.5C 276.89,275.338 275.223,313.005 269.5,350.5C 268.662,350.842 268.328,351.508 268.5,352.5C 267.837,350.359 267.503,348.025 267.5,345.5C 271.799,292.123 271.466,238.79 266.5,185.5C 267.5,185.5 268.5,185.5 269.5,185.5 Z"/></g>
<g><path style="opacity:1" fill="#bbc0c4" d="M 97.5,185.5 C 99.604,185.201 101.604,185.534 103.5,186.5C 101.657,189.422 98.99,190.755 95.5,190.5C 95.3915,188.486 96.0582,186.82 97.5,185.5 Z"/></g>
<g><path style="opacity:1" fill="#5b5d64" d="M 64.5,234.5 C 63.5281,242.98 62.1948,251.314 60.5,259.5C 61.5086,251.602 61.5086,243.769 60.5,236C 62.3008,235.683 62.6341,235.016 61.5,234C 63.8843,231.976 64.051,229.809 62,227.5C 61.6174,228.056 61.1174,228.389 60.5,228.5C 62.0344,219.696 64.2011,211.029 67,202.5C 71.1807,191.448 75.514,180.448 80,169.5C 78.9891,180.567 76.3224,191.233 72,201.5C 69.5571,212.553 67.0571,223.553 64.5,234.5 Z"/></g>
<g><path style="opacity:1" fill="#f4f4f4" d="M 231.5,435.5 C 230.833,435.833 230.167,436.167 229.5,436.5C 227.665,405.651 225.665,374.651 223.5,343.5C 222.833,318.5 222.167,293.5 221.5,268.5C 183.337,267.501 145.004,267.168 106.5,267.5C 106.5,276.833 106.5,286.167 106.5,295.5C 106.157,304.062 106.824,312.395 108.5,320.5C 109.751,334.842 111.084,349.175 112.5,363.5C 112.5,364.167 112.167,364.5 111.5,364.5C 110.263,363.035 109.263,361.368 108.5,359.5C 103.75,324.662 101.583,289.662 102,254.5C 102.896,235.897 105.562,217.564 110,199.5C 111.333,198.167 112.667,198.167 114,199.5C 114.494,201.134 114.66,202.801 114.5,204.5C 110.132,220.07 107.799,236.07 107.5,252.5C 106.518,255.962 106.185,259.629 106.5,263.5C 144.833,263.5 183.167,263.5 221.5,263.5C 221.5,259.167 221.5,254.833 221.5,250.5C 221.182,231.495 221.015,212.495 221,193.5C 222.333,192.167 223.667,192.167 225,193.5C 225.333,225.833 225.667,258.167 226,290.5C 229.148,338.782 230.982,387.115 231.5,435.5 Z"/></g>
<g><path style="opacity:0.005" fill="#fb9752" d="M 58.5,205.5 C 57.0242,207.769 55.5242,210.102 54,212.5C 53.7836,217.286 52.9503,221.953 51.5,226.5C 51.7472,227.713 52.4138,228.38 53.5,228.5C 53.5,229.5 53.5,230.5 53.5,231.5C 50.3793,245.678 48.3793,260.012 47.5,274.5C 46.6554,275.671 45.9887,277.005 45.5,278.5C 44.4233,272.297 44.4233,265.797 45.5,259C 48.2414,251.382 49.7414,243.548 50,235.5C 47.45,239.125 44.95,239.292 42.5,236C 45.6266,227.989 48.6266,219.989 51.5,212C 49.7018,210.907 48.8685,209.407 49,207.5C 51.5166,203.63 53.8499,199.63 56,195.5C 58.1642,198.447 58.9975,201.781 58.5,205.5 Z"/></g>
<g><path style="opacity:1" fill="#444b55" d="M 169.5,223.5 C 168.206,224.29 167.039,225.29 166,226.5C 165.667,226.167 165.333,225.833 165,225.5C 164.667,226.5 164.333,227.5 164,228.5C 159.757,226.556 156.59,224.056 154.5,221C 154.616,219.732 154.949,218.398 155.5,217C 148.5,216.333 141.5,216.333 134.5,217C 137.095,217.226 139.595,217.726 142,218.5C 143.488,217.804 144.988,218.138 146.5,219.5C 145.289,220.72 145.289,221.887 146.5,223C 145.833,223.333 145.167,223.667 144.5,224C 145.13,225.892 146.13,227.559 147.5,229C 146.579,230.756 145.412,230.923 144,229.5C 142.128,230.068 140.295,230.735 138.5,231.5C 138.446,230.47 138.112,229.303 137.5,228C 139.929,227.549 140.096,226.715 138,225.5C 137.667,225.833 137.333,226.167 137,226.5C 135.488,224.043 134.154,224.043 133,226.5C 130.254,223.749 127.087,222.749 123.5,223.5C 121.312,222.599 119.479,221.265 118,219.5C 117,222.5 116,225.5 115,228.5C 112.788,225.998 111.955,222.998 112.5,219.5C 113.5,219.5 114.5,219.5 115.5,219.5C 115.261,217.533 115.594,215.699 116.5,214C 115.39,210.951 114.723,207.784 114.5,204.5C 114.66,202.801 114.494,201.134 114,199.5C 112.667,198.167 111.333,198.167 110,199.5C 105.562,217.564 102.896,235.897 102,254.5C 101.583,289.662 103.75,324.662 108.5,359.5C 105.67,359.037 103.003,358.371 100.5,357.5C 101.5,357.5 102.5,357.5 103.5,357.5C 103.274,353.708 102.44,350.041 101,346.5C 100.617,345.944 100.117,345.611 99.5,345.5C 99.2365,339.578 98.2365,333.911 96.5,328.5C 96.7373,327.209 96.404,326.209 95.5,325.5C 96.1837,319.098 95.1837,313.098 92.5,307.5C 94.2319,288.174 95.2319,268.507 95.5,248.5C 96.273,243.99 96.9397,239.324 97.5,234.5C 97.001,231.696 98.001,229.196 100.5,227C 97.3173,224.688 96.6506,221.854 98.5,218.5C 99.4266,212.866 100.093,207.199 100.5,201.5C 104.536,200.973 108.203,199.64 111.5,197.5C 111.193,191.907 111.527,186.407 112.5,181C 109.635,180.817 106.969,180.317 104.5,179.5C 108.846,179.666 113.179,179.499 117.5,179C 120.023,177.64 122.023,175.807 123.5,173.5C 125.566,177.004 126.9,180.671 127.5,184.5C 127.335,187.85 127.502,191.183 128,194.5C 129.814,201.117 131.314,207.784 132.5,214.5C 142.22,214.808 151.887,214.474 161.5,213.5C 169.539,205.96 177.373,198.293 185,190.5C 188.28,180.381 190.78,170.048 192.5,159.5C 191.444,156.387 190.111,153.387 188.5,150.5C 196.138,149.503 203.804,149.169 211.5,149.5C 208.277,163.106 205.111,176.773 202,190.5C 190.295,200.704 179.462,211.704 169.5,223.5 Z"/></g>
<g><path style="opacity:1" fill="#484f59" d="M 226.5,115.5 C 226.953,116.458 227.619,117.292 228.5,118C 234.157,118.499 239.824,118.666 245.5,118.5C 248.984,126.769 252.318,135.102 255.5,143.5C 248.159,143.334 240.826,143.5 233.5,144C 232.069,144.465 230.903,145.299 230,146.5C 227.678,156.382 226.678,166.382 227,176.5C 239.769,177.579 252.603,177.579 265.5,176.5C 265.5,175.5 265.5,174.5 265.5,173.5C 267.732,177.052 269.066,181.052 269.5,185.5C 268.5,185.5 267.5,185.5 266.5,185.5C 271.466,238.79 271.799,292.123 267.5,345.5C 267.503,348.025 267.837,350.359 268.5,352.5C 267.878,353.627 267.045,354.627 266,355.5C 260.677,381.142 252.01,405.476 240,428.5C 237.564,431.447 234.731,433.78 231.5,435.5C 230.982,387.115 229.148,338.782 226,290.5C 225.667,258.167 225.333,225.833 225,193.5C 223.667,192.167 222.333,192.167 221,193.5C 221.015,212.495 221.182,231.495 221.5,250.5C 220.517,254.298 220.183,258.298 220.5,262.5C 182.833,262.5 145.167,262.5 107.5,262.5C 107.5,259.167 107.5,255.833 107.5,252.5C 107.799,236.07 110.132,220.07 114.5,204.5C 114.723,207.784 115.39,210.951 116.5,214C 115.594,215.699 115.261,217.533 115.5,219.5C 114.5,219.5 113.5,219.5 112.5,219.5C 111.955,222.998 112.788,225.998 115,228.5C 116,225.5 117,222.5 118,219.5C 119.479,221.265 121.312,222.599 123.5,223.5C 127.087,222.749 130.254,223.749 133,226.5C 134.154,224.043 135.488,224.043 137,226.5C 137.333,226.167 137.667,225.833 138,225.5C 140.096,226.715 139.929,227.549 137.5,228C 138.112,229.303 138.446,230.47 138.5,231.5C 140.295,230.735 142.128,230.068 144,229.5C 145.412,230.923 146.579,230.756 147.5,229C 146.13,227.559 145.13,225.892 144.5,224C 145.167,223.667 145.833,223.333 146.5,223C 145.289,221.887 145.289,220.72 146.5,219.5C 144.988,218.138 143.488,217.804 142,218.5C 139.595,217.726 137.095,217.226 134.5,217C 141.5,216.333 148.5,216.333 155.5,217C 154.949,218.398 154.616,219.732 154.5,221C 156.59,224.056 159.757,226.556 164,228.5C 164.333,227.5 164.667,226.5 165,225.5C 165.333,225.833 165.667,226.167 166,226.5C 167.039,225.29 168.206,224.29 169.5,223.5C 183.623,214.892 196.79,204.892 209,193.5C 215.828,177.565 219.994,160.898 221.5,143.5C 191.12,143.022 160.787,143.688 130.5,145.5C 132.406,144.518 134.406,143.518 136.5,142.5C 145.702,133.799 155.368,125.633 165.5,118C 183.728,106.053 203.728,99.5527 225.5,98.5C 225.178,104.358 225.511,110.025 226.5,115.5 Z"/></g>
<g><path style="opacity:1" fill="#4c5159" d="M 437.5,234.5 C 438.242,248.821 438.575,263.154 438.5,277.5C 435.833,277.5 433.167,277.5 430.5,277.5C 430.528,266.306 429.861,255.306 428.5,244.5C 428.815,240.629 428.482,236.962 427.5,233.5C 423.603,202.727 413.27,174.394 396.5,148.5C 396.833,148.167 397.167,147.833 397.5,147.5C 402,150.585 406.667,153.418 411.5,156C 423.791,181.012 432.458,207.179 437.5,234.5 Z"/></g>
<g><path style="opacity:1" fill="#eae9e9" d="M 96.5,201.5 C 97.8333,201.5 99.1667,201.5 100.5,201.5C 100.093,207.199 99.4266,212.866 98.5,218.5C 96.3695,223.74 95.0362,223.573 94.5,218C 95.7331,212.568 96.3997,207.068 96.5,201.5 Z"/></g>
<g><path style="opacity:1" fill="#4a515b" d="M 84.5,197.5 C 88.066,199.461 92.066,200.795 96.5,201.5C 96.3997,207.068 95.7331,212.568 94.5,218C 95.0362,223.573 96.3695,223.74 98.5,218.5C 96.6506,221.854 97.3173,224.688 100.5,227C 98.001,229.196 97.001,231.696 97.5,234.5C 96.9397,239.324 96.273,243.99 95.5,248.5C 95.5,245.167 95.5,241.833 95.5,238.5C 94.1779,238.33 93.0113,238.663 92,239.5C 91.6667,241.5 91.3333,243.5 91,245.5C 90.5,265.497 90.3334,285.497 90.5,305.5C 75.2567,302.743 68.9233,309.076 71.5,324.5C 69.5967,310.05 68.5967,295.383 68.5,280.5C 68.4745,251.633 73.8078,223.966 84.5,197.5 Z"/></g>
<g><path style="opacity:1" fill="#ccc8c9" d="M 272.5,205.5 C 273.971,215.965 274.638,226.632 274.5,237.5C 273.179,227.026 272.512,216.359 272.5,205.5 Z"/></g>
<g><path style="opacity:1" fill="#f6f7f8" d="M 148.5,234.5 C 155.897,237.026 163.23,239.86 170.5,243C 168.315,245.588 165.648,247.421 162.5,248.5C 158.418,246.249 154.085,244.583 149.5,243.5C 146.298,244.099 143.298,245.266 140.5,247C 137.039,247.874 134.039,247.04 131.5,244.5C 131.709,243.914 132.043,243.414 132.5,243C 138.053,240.392 143.387,237.559 148.5,234.5 Z"/></g>
<g><path style="opacity:1" fill="#f2f3f3" d="M 95.5,248.5 C 95.2319,268.507 94.2319,288.174 92.5,307.5C 91.5,307.167 90.8333,306.5 90.5,305.5C 90.3334,285.497 90.5,265.497 91,245.5C 91.3333,243.5 91.6667,241.5 92,239.5C 93.0113,238.663 94.1779,238.33 95.5,238.5C 95.5,241.833 95.5,245.167 95.5,248.5 Z"/></g>
<g><path style="opacity:1" fill="#161c29" d="M 67.5,239.5 C 66.0608,251.467 65.0608,263.467 64.5,275.5C 63.6708,283.323 63.1708,291.323 63,299.5C 62.6514,289.509 61.4847,279.842 59.5,270.5C 60.2436,266.881 60.577,263.215 60.5,259.5C 62.1948,251.314 63.5281,242.98 64.5,234.5C 65.2679,233.737 65.7679,232.737 66,231.5C 66.567,234.168 67.067,236.834 67.5,239.5 Z"/></g>
<g><path style="opacity:0.841" fill="#3e2e2d" d="M 442.5,228.5 C 444.358,237.932 445.358,247.599 445.5,257.5C 444.862,255.427 443.862,253.427 442.5,251.5C 443.794,243.974 443.794,236.307 442.5,228.5 Z"/></g>
<g><path style="opacity:0.004" fill="#fc9851" d="M 42.5,248.5 C 43.5,248.5 44.5,248.5 45.5,248.5C 45.7525,251.32 45.2525,253.986 44,256.5C 41.5709,254.13 41.0709,251.463 42.5,248.5 Z"/></g>
<g><path style="opacity:1" fill="#161820" d="M 427.5,233.5 C 428.482,236.962 428.815,240.629 428.5,244.5C 428.974,250.228 428.307,255.728 426.5,261C 428.056,266.753 429.223,272.586 430,278.5C 431.067,279.191 432.234,279.691 433.5,280C 432.713,283.004 433.379,285.837 435.5,288.5C 435.043,289.298 434.376,289.631 433.5,289.5C 432.312,287.278 431.312,284.945 430.5,282.5C 425.869,281.338 421.202,281.172 416.5,282C 418.517,287.035 421.017,291.869 424,296.5C 425.759,300.009 426.926,303.675 427.5,307.5C 426.167,307.5 424.833,307.5 423.5,307.5C 420.043,298.585 416.043,289.918 411.5,281.5C 403.833,281.5 396.167,281.5 388.5,281.5C 389.57,288.972 391.237,296.305 393.5,303.5C 393.762,304.978 393.429,306.311 392.5,307.5C 390.603,306.632 389.27,305.299 388.5,303.5C 386.297,296.224 384.297,288.891 382.5,281.5C 379.753,281.187 377.086,281.52 374.5,282.5C 370.239,288.693 366.239,295.026 362.5,301.5C 361.957,301.56 361.624,301.893 361.5,302.5C 364.5,303.167 367.5,303.833 370.5,304.5C 371.491,306.123 370.824,307.123 368.5,307.5C 367.749,306.624 367.249,305.624 367,304.5C 364.772,306.113 362.272,306.78 359.5,306.5C 357.757,305.359 356.757,303.692 356.5,301.5C 360.064,294.708 363.898,288.041 368,281.5C 369.715,278.603 372.215,277.269 375.5,277.5C 392.167,277.5 408.833,277.5 425.5,277.5C 425.5,273.833 425.5,270.167 425.5,266.5C 405.5,266.5 385.5,266.5 365.5,266.5C 365.5,265.167 365.5,263.833 365.5,262.5C 366.5,262.5 367.5,262.5 368.5,262.5C 387.53,263.154 406.197,262.487 424.5,260.5C 424.5,258.167 424.5,255.833 424.5,253.5C 397.833,253.5 371.167,253.5 344.5,253.5C 344.229,251.62 344.896,250.287 346.5,249.5C 372.5,249.5 398.5,249.5 424.5,249.5C 424.716,243.9 425.716,238.567 427.5,233.5 Z"/></g>
<g><path style="opacity:1" fill="#6d6460" d="M 60.5,259.5 C 60.577,263.215 60.2436,266.881 59.5,270.5C 58.3401,282.66 58.1735,294.993 59,307.5C 67.773,353.043 65.773,353.709 53,309.5C 49.9513,281.987 52.4513,254.987 60.5,228.5C 61.1174,228.389 61.6174,228.056 62,227.5C 64.051,229.809 63.8843,231.976 61.5,234C 62.6341,235.016 62.3008,235.683 60.5,236C 61.5086,243.769 61.5086,251.602 60.5,259.5 Z"/></g>
<g><path style="opacity:0.008" fill="#fc9852" d="M 446.5,258.5 C 447.018,264.819 448.018,271.152 449.5,277.5C 448.5,277.5 447.5,277.5 446.5,277.5C 446.5,271.167 446.5,264.833 446.5,258.5 Z"/></g>
<g><path style="opacity:1" fill="#333942" d="M 424.5,260.5 C 406.197,262.487 387.53,263.154 368.5,262.5C 387.069,261.821 405.735,261.155 424.5,260.5 Z"/></g>
<g><path style="opacity:1" fill="#94a4ad" d="M 221.5,250.5 C 221.5,254.833 221.5,259.167 221.5,263.5C 183.167,263.5 144.833,263.5 106.5,263.5C 106.185,259.629 106.518,255.962 107.5,252.5C 107.5,255.833 107.5,259.167 107.5,262.5C 145.167,262.5 182.833,262.5 220.5,262.5C 220.183,258.298 220.517,254.298 221.5,250.5 Z"/></g>
<g><path style="opacity:0.004" fill="#fc9851" d="M 41.5,264.5 C 43.337,264.639 43.6704,265.306 42.5,266.5C 41.7025,266.043 41.3691,265.376 41.5,264.5 Z"/></g>
<g><path style="opacity:0.424" fill="#af6944" d="M 445.5,258.5 C 445.833,258.5 446.167,258.5 446.5,258.5C 446.5,264.833 446.5,271.167 446.5,277.5C 447.5,277.5 448.5,277.5 449.5,277.5C 449.5,277.833 449.5,278.167 449.5,278.5C 448.167,278.5 446.833,278.5 445.5,278.5C 445.5,271.833 445.5,265.167 445.5,258.5 Z"/></g>
<g><path style="opacity:1" fill="#454b54" d="M 221.5,268.5 C 222.167,293.5 222.833,318.5 223.5,343.5C 223.665,347.182 223.499,350.848 223,354.5C 222.667,351.5 222.333,348.5 222,345.5C 221.667,346.5 221.333,347.5 221,348.5C 220.166,345.828 219.332,343.161 218.5,340.5C 219.504,338.323 218.838,337.989 216.5,339.5C 215.318,337.355 213.818,337.355 212,339.5C 211.363,342.107 210.196,344.44 208.5,346.5C 209.55,348.102 208.883,348.935 206.5,349C 207.022,349.561 207.355,350.228 207.5,351C 205.976,352.194 204.81,353.694 204,355.5C 202.457,354.715 200.79,354.715 199,355.5C 194.543,357.539 190.043,359.372 185.5,361C 185.833,361.333 186.167,361.667 186.5,362C 184.588,363.2 183.255,364.867 182.5,367C 183,367.5 183.5,368 184,368.5C 184.29,366.956 184.956,365.623 186,364.5C 188.083,366.867 190.583,368.701 193.5,370C 191.82,370.347 190.82,371.347 190.5,373C 191.604,376.131 193.27,378.131 195.5,379C 195.167,379.333 194.833,379.667 194.5,380C 196.5,380.667 198.5,380.667 200.5,380C 200.381,378.719 200.881,377.552 202,376.5C 202.333,377.5 202.667,378.5 203,379.5C 203.333,376.5 203.667,373.5 204,370.5C 204.181,373.695 204.681,376.695 205.5,379.5C 205.918,380.222 206.584,380.722 207.5,381C 206.5,381.333 205.5,381.667 204.5,382C 208.444,384.217 208.277,385.717 204,386.5C 203.751,385.376 203.251,384.376 202.5,383.5C 200.987,385.981 199.654,387.981 198.5,389.5C 197.732,388.737 197.232,387.737 197,386.5C 196.683,388.301 196.016,388.634 195,387.5C 189.888,388.242 184.722,388.908 179.5,389.5C 178.287,389.253 177.62,388.586 177.5,387.5C 178.686,386.295 178.686,384.961 177.5,383.5C 179.525,382.525 181.191,381.025 182.5,379C 182.167,378.5 181.833,378 181.5,377.5C 179.93,377.694 178.43,377.694 177,377.5C 177.077,378.738 176.911,379.738 176.5,380.5C 171.237,376.144 169.07,370.477 170,363.5C 167.667,362.833 165.333,362.167 163,361.5C 162.5,362 162,362.5 161.5,363C 164.036,363.186 166.369,363.686 168.5,364.5C 164.833,364.5 161.167,364.5 157.5,364.5C 157.058,360.846 156.724,357.179 156.5,353.5C 154.5,353.5 152.5,353.5 150.5,353.5C 150.5,356.833 150.5,360.167 150.5,363.5C 146.5,363.5 142.5,363.5 138.5,363.5C 138.5,364.833 138.5,366.167 138.5,367.5C 143.167,367.5 147.833,367.5 152.5,367.5C 152.5,371.5 152.5,375.5 152.5,379.5C 154.5,379.5 156.5,379.5 158.5,379.5C 158.5,378.167 158.5,376.833 158.5,375.5C 159.613,376.946 159.78,378.613 159,380.5C 157.684,381.974 156.684,383.641 156,385.5C 154.676,384.12 153.343,383.786 152,384.5C 150.315,382.983 148.815,381.316 147.5,379.5C 143.959,382.116 140.459,382.116 137,379.5C 136.617,380.056 136.117,380.389 135.5,380.5C 131.833,380.5 128.167,380.5 124.5,380.5C 123.71,381.609 123.21,382.942 123,384.5C 122.834,380.489 122,379.989 120.5,383C 121.258,384.364 120.758,385.531 119,386.5C 117.855,385.316 116.688,385.316 115.5,386.5C 115.208,383.199 113.541,381.199 110.5,380.5C 111.449,375.26 111.782,369.927 111.5,364.5C 112.167,364.5 112.5,364.167 112.5,363.5C 113.309,361.708 113.809,359.708 114,357.5C 114.495,359.473 114.662,361.473 114.5,363.5C 117.238,362.965 119.072,363.965 120,366.5C 120.333,365.833 120.667,365.167 121,364.5C 121.232,365.737 121.732,366.737 122.5,367.5C 125.625,368.479 128.958,368.813 132.5,368.5C 132.784,366.585 132.451,364.919 131.5,363.5C 128.695,362.681 125.695,362.181 122.5,362C 123.013,360.424 122.346,359.091 120.5,358C 122.796,356.472 123.963,354.639 124,352.5C 125.423,354.345 126.59,356.345 127.5,358.5C 128.736,357.754 130.07,357.421 131.5,357.5C 130.703,355.104 130.37,352.771 130.5,350.5C 131.167,349.167 131.833,347.833 132.5,346.5C 131.447,341.867 131.281,337.201 132,332.5C 132.181,335.695 132.681,338.695 133.5,341.5C 133.337,343.857 133.503,346.19 134,348.5C 135.011,349.337 136.178,349.67 137.5,349.5C 137.656,341.471 137.323,333.471 136.5,325.5C 136.5,324.5 136.5,323.5 136.5,322.5C 140.371,322.815 144.038,322.482 147.5,321.5C 150.894,323.508 154.561,325.175 158.5,326.5C 168.345,325.489 172.178,320.155 170,310.5C 165.85,304.399 160.35,302.899 153.5,306C 149.961,309.387 148.628,313.553 149.5,318.5C 144.833,318.5 140.167,318.5 135.5,318.5C 135.5,314.167 135.5,309.833 135.5,305.5C 135.5,304.5 135.5,303.5 135.5,302.5C 139.371,302.815 143.038,302.482 146.5,301.5C 148.833,301.5 151.167,301.5 153.5,301.5C 152.945,293.178 152.612,284.844 152.5,276.5C 151.167,276.5 149.833,276.5 148.5,276.5C 148.944,283.827 149.277,291.16 149.5,298.5C 144.5,298.5 139.5,298.5 134.5,298.5C 134.5,291.167 134.5,283.833 134.5,276.5C 132.833,276.5 131.167,276.5 129.5,276.5C 129.5,277.833 129.5,279.167 129.5,280.5C 128.675,284.647 128.175,288.981 128,293.5C 127.667,290.833 127.333,288.167 127,285.5C 125.242,286.469 124.742,287.636 125.5,289C 124.726,291.44 123.06,292.773 120.5,293C 121.249,294.734 121.749,296.567 122,298.5C 122.915,297.672 123.581,296.672 124,295.5C 124.667,297.5 124.667,299.5 124,301.5C 123.667,300.833 123.333,300.167 123,299.5C 122.583,300.756 121.75,301.423 120.5,301.5C 120.5,299.833 120.5,298.167 120.5,296.5C 119.797,289.815 119.797,283.148 120.5,276.5C 118.833,276.5 117.167,276.5 115.5,276.5C 114.898,282.024 115.898,287.19 118.5,292C 116.136,293.962 113.469,295.462 110.5,296.5C 109.692,294.577 109.192,292.577 109,290.5C 108.667,290.833 108.333,291.167 108,291.5C 107.5,283.841 107.334,276.174 107.5,268.5C 145.5,268.5 183.5,268.5 221.5,268.5 Z"/></g>
<g><path style="opacity:1" fill="#343c46" d="M 365.5,266.5 C 385.5,266.5 405.5,266.5 425.5,266.5C 425.5,270.167 425.5,273.833 425.5,277.5C 408.833,277.5 392.167,277.5 375.5,277.5C 391.658,276.504 407.991,276.17 424.5,276.5C 424.5,273.5 424.5,270.5 424.5,267.5C 404.66,267.83 384.993,267.497 365.5,266.5 Z"/></g>
<g><path style="opacity:1" fill="#e4e0df" d="M 134.5,298.5 C 134.5,299.167 134.5,299.833 134.5,300.5C 134.167,300.5 133.833,300.5 133.5,300.5C 132.833,301.5 132.167,302.5 131.5,303.5C 130.598,295.875 129.931,288.209 129.5,280.5C 129.5,279.167 129.5,277.833 129.5,276.5C 131.167,276.5 132.833,276.5 134.5,276.5C 134.5,283.833 134.5,291.167 134.5,298.5 Z"/></g>
<g><path style="opacity:1" fill="#f2f4f5" d="M 181.5,276.5 C 182.833,276.5 184.167,276.5 185.5,276.5C 185.303,282.545 185.637,288.545 186.5,294.5C 184.833,294.5 183.167,294.5 181.5,294.5C 181.5,288.5 181.5,282.5 181.5,276.5 Z"/></g>
<g><path style="opacity:0.006" fill="#f99652" d="M 45.5,279.5 C 45.5,281.833 45.5,284.167 45.5,286.5C 44.1667,286.833 44.1667,287.167 45.5,287.5C 45.1795,292.695 45.5128,297.695 46.5,302.5C 51.5209,329.234 60.0209,354.901 72,379.5C 72.6015,382.221 72.4349,384.887 71.5,387.5C 67.0942,394.441 63.2609,401.774 60,409.5C 59.3524,414.707 60.8524,419.207 64.5,423C 78.0727,424.298 91.7394,424.965 105.5,425C 113.904,432.369 123.571,437.369 134.5,440C 135.056,440.383 135.389,440.883 135.5,441.5C 131.684,441.979 128.35,440.979 125.5,438.5C 124.833,438.833 124.167,439.167 123.5,439.5C 120.087,435.737 116.254,435.07 112,437.5C 108.367,436.86 105.533,435.027 103.5,432C 104.672,431.581 105.672,430.915 106.5,430C 104.197,428.355 102.53,426.855 101.5,425.5C 99.9707,425.529 98.804,426.196 98,427.5C 97.6924,426.692 97.1924,426.025 96.5,425.5C 91.9208,425.907 87.0875,426.24 82,426.5C 75.4864,425.853 68.9864,425.186 62.5,424.5C 59.5723,421.144 57.5723,417.311 56.5,413C 58.1979,407.13 60.8645,401.797 64.5,397C 63.6634,395.989 63.33,394.822 63.5,393.5C 59.4507,397.434 57.1173,402.267 56.5,408C 54.7412,408.798 53.0745,408.631 51.5,407.5C 51.1488,396.64 47.1488,394.807 39.5,402C 36.1961,403.042 34.0295,401.875 33,398.5C 31.0848,391.672 29.2515,384.838 27.5,378C 28.3041,376.229 29.4708,374.729 31,373.5C 31.5613,374.022 32.228,374.355 33,374.5C 34.3943,373.387 35.561,372.053 36.5,370.5C 36.8333,370.667 37.1667,370.833 37.5,371C 38.3071,376.083 38.8071,381.25 39,386.5C 40.7985,386.721 42.6318,387.054 44.5,387.5C 45.2811,388.729 45.7811,390.062 46,391.5C 46.5613,392.022 47.228,392.355 48,392.5C 56.8112,385.065 59.3112,375.898 55.5,365C 56.0219,364.439 56.3552,363.772 56.5,363C 55.392,360.888 53.892,359.054 52,357.5C 50.916,354.751 50.0827,351.918 49.5,349C 51.6505,346.595 52.9839,343.761 53.5,340.5C 51.7612,340.406 49.7612,340.239 47.5,340C 45.0253,335.852 45.3586,331.852 48.5,328C 47.7827,326.469 46.7827,325.136 45.5,324C 46.3479,321.23 46.6813,318.397 46.5,315.5C 45.1667,315.5 43.8333,315.5 42.5,315.5C 42.3796,313.801 42.0463,312.135 41.5,310.5C 41.5565,309.263 42.0565,308.263 43,307.5C 42.8554,297.78 43.6888,288.446 45.5,279.5 Z M 63.5,393.5 C 63.6854,391.804 64.5187,390.471 66,389.5C 66.4419,391.614 65.6086,392.948 63.5,393.5 Z"/></g>
<g><path style="opacity:1" fill="#1c1c22" d="M 272.5,112.5 C 273.735,112.721 274.735,113.388 275.5,114.5C 276.167,114.167 276.833,113.833 277.5,113.5C 278.176,114.602 278.842,115.602 279.5,116.5C 283.183,120.025 286.35,124.025 289,128.5C 311.32,173.844 322.154,222.011 321.5,273C 322.767,318.532 313.6,361.699 294,402.5C 288.468,412.923 281.968,422.589 274.5,431.5C 273.099,431.029 271.766,430.362 270.5,429.5C 271.55,428.571 271.55,427.905 270.5,427.5C 295.553,394.035 310.053,356.368 314,314.5C 321.241,254.186 312.908,196.186 289,140.5C 285.804,133.416 281.637,127.083 276.5,121.5C 275.833,120.167 274.833,119.167 273.5,118.5C 272.209,117.527 272.209,116.527 273.5,115.5C 272.757,114.818 272.091,114.151 271.5,113.5C 272.167,113.5 272.5,113.167 272.5,112.5 Z"/></g>
<g><path style="opacity:1" fill="#4a535c" d="M 393.5,303.5 C 391.237,296.305 389.57,288.972 388.5,281.5C 396.167,281.5 403.833,281.5 411.5,281.5C 416.043,289.918 420.043,298.585 423.5,307.5C 424.833,307.5 426.167,307.5 427.5,307.5C 426.926,303.675 425.759,300.009 424,296.5C 421.017,291.869 418.517,287.035 416.5,282C 421.202,281.172 425.869,281.338 430.5,282.5C 431.312,284.945 432.312,287.278 433.5,289.5C 436.748,295.665 440.248,301.665 444,307.5C 445.622,307.046 446.788,306.046 447.5,304.5C 442.499,297.008 438.166,289.175 434.5,281C 441.385,279.29 446.551,281.456 450,287.5C 453.581,294.33 457.414,300.997 461.5,307.5C 457.472,309.849 453.806,312.683 450.5,316C 433.192,317.487 415.858,317.821 398.5,317C 396.138,312.689 394.471,308.189 393.5,303.5 Z"/></g>
<g><path style="opacity:1" fill="#4b525b" d="M 388.5,303.5 C 388.441,305.722 387.275,306.722 385,306.5C 382.387,304.909 379.553,303.742 376.5,303C 371.649,302.826 366.982,302.326 362.5,301.5C 366.239,295.026 370.239,288.693 374.5,282.5C 377.086,281.52 379.753,281.187 382.5,281.5C 384.297,288.891 386.297,296.224 388.5,303.5 Z"/></g>
<g><path style="opacity:0.029" fill="#ef9052" d="M 449.5,277.5 C 450.552,277.351 451.552,277.517 452.5,278C 459.705,287.436 465.705,297.602 470.5,308.5C 468.926,313.076 465.926,316.409 461.5,318.5C 461.167,319.667 460.833,320.833 460.5,322C 459.754,332.15 459.254,342.316 459,352.5C 458.79,354.058 458.29,355.391 457.5,356.5C 457.5,353.5 457.5,350.5 457.5,347.5C 458.13,337.513 458.63,327.513 459,317.5C 463.333,315.665 466.5,312.665 468.5,308.5C 463.668,297.493 457.335,287.493 449.5,278.5C 449.5,278.167 449.5,277.833 449.5,277.5 Z"/></g>
<g><path style="opacity:0.369" fill="#cb7c4e" d="M 47.5,274.5 C 46.683,283.809 46.3496,293.143 46.5,302.5C 45.5128,297.695 45.1795,292.695 45.5,287.5C 45.5,287.167 45.5,286.833 45.5,286.5C 45.5,284.167 45.5,281.833 45.5,279.5C 45.5,279.167 45.5,278.833 45.5,278.5C 45.9887,277.005 46.6554,275.671 47.5,274.5 Z"/></g>
<g><path style="opacity:1" fill="#f8b862" d="M 146.5,301.5 C 142.5,301.5 138.5,301.5 134.5,301.5C 134.5,301.167 134.5,300.833 134.5,300.5C 134.5,299.833 134.5,299.167 134.5,298.5C 139.5,298.5 144.5,298.5 149.5,298.5C 149.277,291.16 148.944,283.827 148.5,276.5C 149.833,276.5 151.167,276.5 152.5,276.5C 152.612,284.844 152.945,293.178 153.5,301.5C 151.167,301.5 148.833,301.5 146.5,301.5 Z"/></g>
<g><path style="opacity:1" fill="#638653" d="M 205.5,298.5 C 206.833,298.5 208.167,298.5 209.5,298.5C 210.5,303.5 208.5,305.5 203.5,304.5C 203.259,302.114 203.925,300.114 205.5,298.5 Z"/></g>
<g><path style="opacity:1" fill="#fae3c1" d="M 133.5,300.5 C 133.821,306.026 133.488,311.36 132.5,316.5C 131.515,312.366 131.182,308.032 131.5,303.5C 132.167,302.5 132.833,301.5 133.5,300.5 Z"/></g>
<g><path style="opacity:1" fill="#f0c78f" d="M 133.5,300.5 C 133.833,300.5 134.167,300.5 134.5,300.5C 134.5,300.833 134.5,301.167 134.5,301.5C 134.232,303.099 134.566,304.432 135.5,305.5C 135.5,309.833 135.5,314.167 135.5,318.5C 134.167,320.167 134.167,321.833 135.5,323.5C 135.328,324.492 135.662,325.158 136.5,325.5C 137.323,333.471 137.656,341.471 137.5,349.5C 136.178,349.67 135.011,349.337 134,348.5C 133.503,346.19 133.337,343.857 133.5,341.5C 132.945,333.178 132.612,324.844 132.5,316.5C 133.488,311.36 133.821,306.026 133.5,300.5 Z"/></g>
<g><path style="opacity:1" fill="#b37953" d="M 134.5,301.5 C 138.5,301.5 142.5,301.5 146.5,301.5C 143.038,302.482 139.371,302.815 135.5,302.5C 135.5,303.5 135.5,304.5 135.5,305.5C 134.566,304.432 134.232,303.099 134.5,301.5 Z"/></g>
<g><path style="opacity:1" fill="#4a525c" d="M 276.5,121.5 C 281.637,127.083 285.804,133.416 289,140.5C 312.908,196.186 321.241,254.186 314,314.5C 310.053,356.368 295.553,394.035 270.5,427.5C 261.838,435.997 251.504,438.997 239.5,436.5C 246.694,426.115 252.861,415.115 258,403.5C 262.146,391.562 265.646,379.562 268.5,367.5C 269.29,366.391 269.79,365.058 270,363.5C 270.23,367.483 271.563,368.149 274,365.5C 274.333,366.167 274.667,366.833 275,367.5C 276.044,366.377 276.71,365.044 277,363.5C 277.741,364.641 278.575,364.641 279.5,363.5C 282.112,360.611 283.945,357.278 285,353.5C 286.101,351.606 287.434,350.939 289,351.5C 289.133,348.586 290.3,346.253 292.5,344.5C 293.172,338.932 294.172,333.432 295.5,328C 295.355,327.228 295.022,326.561 294.5,326C 297.546,322.877 299.046,319.044 299,314.5C 299.285,302.697 300.785,291.197 303.5,280C 302.872,277.63 302.539,275.297 302.5,273C 303.068,270.316 304.068,267.816 305.5,265.5C 303.875,259.435 302.542,253.602 301.5,248C 301.842,242.83 302.009,237.33 302,231.5C 304.543,226.902 304.71,222.068 302.5,217C 302.233,209.262 302.566,201.428 303.5,193.5C 302.687,192.186 301.687,191.019 300.5,190C 300.833,189.667 301.167,189.333 301.5,189C 300.72,186.302 299.387,183.969 297.5,182C 298.059,181.275 298.392,180.442 298.5,179.5C 297.408,177.399 296.408,175.232 295.5,173C 296.833,171.16 296.666,170.66 295,171.5C 293.666,167.833 292.333,164.166 291,160.5C 290.667,162.167 290.333,163.833 290,165.5C 289.803,163.139 288.636,161.472 286.5,160.5C 287.052,158.997 287.052,157.331 286.5,155.5C 287.552,155.649 288.552,155.483 289.5,155C 285.18,153.695 283.847,151.029 285.5,147C 283.754,146.529 282.087,145.862 280.5,145C 282.044,144.71 283.377,144.044 284.5,143C 282.981,141.649 281.648,140.149 280.5,138.5C 279.808,139.025 279.308,139.692 279,140.5C 278.535,139.069 277.701,137.903 276.5,137C 277.623,135.956 278.956,135.29 280.5,135C 278.026,133.039 276.026,130.706 274.5,128C 277.592,126.541 278.258,124.374 276.5,121.5 Z"/></g>
<g><path style="opacity:1" fill="#e7e6e7" d="M 182.5,302.5 C 183.833,302.5 185.167,302.5 186.5,302.5C 187.167,307.16 187.333,311.826 187,316.5C 185.667,317.833 184.333,317.833 183,316.5C 182.501,311.845 182.334,307.179 182.5,302.5 Z"/></g>
<g><path style="opacity:1" fill="#f4b265" d="M 147.5,321.5 C 143.029,320.911 139.029,321.577 135.5,323.5C 134.167,321.833 134.167,320.167 135.5,318.5C 140.167,318.5 144.833,318.5 149.5,318.5C 148.628,313.553 149.961,309.387 153.5,306C 160.35,302.899 165.85,304.399 170,310.5C 172.178,320.155 168.345,325.489 158.5,326.5C 154.561,325.175 150.894,323.508 147.5,321.5 Z"/></g>
<g><path style="opacity:1" fill="#1b1d25" d="M 442.5,226.5 C 442.5,227.167 442.5,227.833 442.5,228.5C 443.794,236.307 443.794,243.974 442.5,251.5C 443.862,253.427 444.862,255.427 445.5,257.5C 445.5,257.833 445.5,258.167 445.5,258.5C 445.5,265.167 445.5,271.833 445.5,278.5C 446.833,278.5 448.167,278.5 449.5,278.5C 457.335,287.493 463.668,297.493 468.5,308.5C 466.5,312.665 463.333,315.665 459,317.5C 458.63,327.513 458.13,337.513 457.5,347.5C 456.282,365.81 452.782,383.81 447,401.5C 443.226,412.597 437.06,422.097 428.5,430C 426.922,431.094 425.255,431.928 423.5,432.5C 422.06,433.363 420.726,433.363 419.5,432.5C 418.833,433.5 418.167,434.5 417.5,435.5C 415.376,432.59 412.709,431.757 409.5,433C 410.617,431.108 412.284,430.275 414.5,430.5C 414.604,428.297 415.27,426.297 416.5,424.5C 421.438,420.064 426.271,415.397 431,410.5C 440.668,394.212 446.334,376.545 448,357.5C 449.082,345.845 449.916,334.178 450.5,322.5C 444.167,322.5 437.833,322.5 431.5,322.5C 432.185,358.411 422.018,390.745 401,419.5C 395.417,426.6 388.584,431.934 380.5,435.5C 378.5,435.5 377.5,434.5 377.5,432.5C 386.036,426.804 393.536,419.804 400,411.5C 418.027,385.063 426.527,355.729 425.5,323.5C 418.5,323.5 411.5,323.5 404.5,323.5C 404.737,341.694 403.071,359.694 399.5,377.5C 398.167,377.5 396.833,377.5 395.5,377.5C 396.913,363.705 397.913,349.872 398.5,336C 400.127,327.902 397.46,322.069 390.5,318.5C 392.249,346.912 387.749,374.245 377,400.5C 369.084,416.252 356.917,427.252 340.5,433.5C 340.44,432.957 340.107,432.624 339.5,432.5C 337.941,433.074 336.441,433.74 335,434.5C 333.601,433.773 332.101,433.273 330.5,433C 331.337,431.989 331.67,430.822 331.5,429.5C 328.615,429.806 325.948,429.473 323.5,428.5C 339.359,426.074 352.359,418.741 362.5,406.5C 345.777,405.957 329.111,405.124 312.5,404C 311.282,402.562 310.615,400.895 310.5,399C 311.405,394.618 312.905,390.452 315,386.5C 319.163,380.368 324.663,378.868 331.5,382C 338.609,386.594 343.609,392.761 346.5,400.5C 353.422,400.812 360.256,400.479 367,399.5C 376.379,380.983 381.213,361.316 381.5,340.5C 382.119,323.681 374.786,312.347 359.5,306.5C 362.272,306.78 364.772,306.113 367,304.5C 367.249,305.624 367.749,306.624 368.5,307.5C 370.824,307.123 371.491,306.123 370.5,304.5C 367.5,303.833 364.5,303.167 361.5,302.5C 361.624,301.893 361.957,301.56 362.5,301.5C 366.982,302.326 371.649,302.826 376.5,303C 379.553,303.742 382.387,304.909 385,306.5C 387.275,306.722 388.441,305.722 388.5,303.5C 389.27,305.299 390.603,306.632 392.5,307.5C 393.429,306.311 393.762,304.978 393.5,303.5C 394.471,308.189 396.138,312.689 398.5,317C 415.858,317.821 433.192,317.487 450.5,316C 453.806,312.683 457.472,309.849 461.5,307.5C 457.414,300.997 453.581,294.33 450,287.5C 446.551,281.456 441.385,279.29 434.5,281C 438.166,289.175 442.499,297.008 447.5,304.5C 446.788,306.046 445.622,307.046 444,307.5C 440.248,301.665 436.748,295.665 433.5,289.5C 434.376,289.631 435.043,289.298 435.5,288.5C 433.379,285.837 432.713,283.004 433.5,280C 432.234,279.691 431.067,279.191 430,278.5C 429.223,272.586 428.056,266.753 426.5,261C 428.307,255.728 428.974,250.228 428.5,244.5C 429.861,255.306 430.528,266.306 430.5,277.5C 433.167,277.5 435.833,277.5 438.5,277.5C 438.575,263.154 438.242,248.821 437.5,234.5C 438.117,234.611 438.617,234.944 439,235.5C 439.974,233.122 440.641,233.456 441,236.5C 441.638,233.464 441.472,230.464 440.5,227.5C 440.439,225.279 441.105,224.946 442.5,226.5 Z"/></g>
<g><path style="opacity:1" fill="#4b5159" d="M 221.5,268.5 C 183.5,268.5 145.5,268.5 107.5,268.5C 107.334,276.174 107.5,283.841 108,291.5C 108.333,291.167 108.667,290.833 109,290.5C 109.192,292.577 109.692,294.577 110.5,296.5C 113.469,295.462 116.136,293.962 118.5,292C 115.898,287.19 114.898,282.024 115.5,276.5C 117.167,276.5 118.833,276.5 120.5,276.5C 119.797,283.148 119.797,289.815 120.5,296.5C 119.85,296.196 119.183,295.863 118.5,295.5C 117.167,298.167 117.167,300.833 118.5,303.5C 119.522,303.145 120.189,302.478 120.5,301.5C 121.75,301.423 122.583,300.756 123,299.5C 123.333,300.167 123.667,300.833 124,301.5C 124.667,299.5 124.667,297.5 124,295.5C 123.581,296.672 122.915,297.672 122,298.5C 121.749,296.567 121.249,294.734 120.5,293C 123.06,292.773 124.726,291.44 125.5,289C 124.742,287.636 125.242,286.469 127,285.5C 127.333,288.167 127.667,290.833 128,293.5C 128.175,288.981 128.675,284.647 129.5,280.5C 129.931,288.209 130.598,295.875 131.5,303.5C 131.182,308.032 131.515,312.366 132.5,316.5C 132.612,324.844 132.945,333.178 133.5,341.5C 132.681,338.695 132.181,335.695 132,332.5C 131.281,337.201 131.447,341.867 132.5,346.5C 131.833,347.833 131.167,349.167 130.5,350.5C 130.37,352.771 130.703,355.104 131.5,357.5C 130.07,357.421 128.736,357.754 127.5,358.5C 126.59,356.345 125.423,354.345 124,352.5C 123.963,354.639 122.796,356.472 120.5,358C 122.346,359.091 123.013,360.424 122.5,362C 125.695,362.181 128.695,362.681 131.5,363.5C 128.5,363.5 125.5,363.5 122.5,363.5C 122.5,364.833 122.5,366.167 122.5,367.5C 121.732,366.737 121.232,365.737 121,364.5C 120.667,365.167 120.333,365.833 120,366.5C 119.072,363.965 117.238,362.965 114.5,363.5C 114.662,361.473 114.495,359.473 114,357.5C 113.809,359.708 113.309,361.708 112.5,363.5C 111.084,349.175 109.751,334.842 108.5,320.5C 108.268,311.983 107.601,303.65 106.5,295.5C 106.5,286.167 106.5,276.833 106.5,267.5C 145.004,267.168 183.337,267.501 221.5,268.5 Z"/></g>
<g><path style="opacity:1" fill="#e7e9ea" d="M 120.5,296.5 C 120.5,298.167 120.5,299.833 120.5,301.5C 120.189,302.478 119.522,303.145 118.5,303.5C 117.167,300.833 117.167,298.167 118.5,295.5C 119.183,295.863 119.85,296.196 120.5,296.5 Z"/></g>
<g><path style="opacity:1" fill="#e6e6e8" d="M 116.5,277.5 C 117.5,277.5 118.5,277.5 119.5,277.5C 119.5,279.833 119.5,282.167 119.5,284.5C 118.5,284.5 117.5,284.5 116.5,284.5C 116.5,282.167 116.5,279.833 116.5,277.5 Z"/></g>
<g><path style="opacity:1" fill="#212730" d="M 90.5,305.5 C 90.8333,306.5 91.5,307.167 92.5,307.5C 95.1837,313.098 96.1837,319.098 95.5,325.5C 94.5987,326.29 93.9321,327.29 93.5,328.5C 85.4613,331.891 78.128,330.891 71.5,325.5C 71.5,325.167 71.5,324.833 71.5,324.5C 68.9233,309.076 75.2567,302.743 90.5,305.5 Z"/></g>
<g><path style="opacity:1" fill="#c1c5c8" d="M 106.5,295.5 C 107.601,303.65 108.268,311.983 108.5,320.5C 106.824,312.395 106.157,304.062 106.5,295.5 Z"/></g>
<g><path style="opacity:1" fill="#474951" d="M 156.5,309.5 C 166.238,308.712 168.571,312.379 163.5,320.5C 156.202,322.701 153.036,320.034 154,312.5C 155.045,311.627 155.878,310.627 156.5,309.5 Z"/></g>
<g><path style="opacity:1" fill="#c2bfc0" d="M 78.5,313.5 C 80.1667,313.5 81.8333,313.5 83.5,313.5C 84.5749,317.938 82.9083,319.938 78.5,319.5C 78.5,317.5 78.5,315.5 78.5,313.5 Z"/></g>
<g><path style="opacity:1" fill="#eaedec" d="M 118.5,310.5 C 119.5,310.5 120.5,310.5 121.5,310.5C 121.5,313.167 121.5,315.833 121.5,318.5C 120.5,318.5 119.5,318.5 118.5,318.5C 118.5,315.833 118.5,313.167 118.5,310.5 Z"/></g>
<g><path style="opacity:1" fill="#f2f1f2" d="M 206.5,314.5 C 207.833,314.5 209.167,314.5 210.5,314.5C 210.5,316.167 210.5,317.833 210.5,319.5C 208.833,319.5 207.167,319.5 205.5,319.5C 205.366,317.708 205.699,316.042 206.5,314.5 Z"/></g>
<g><path style="opacity:1" fill="#ab7351" d="M 147.5,321.5 C 144.038,322.482 140.371,322.815 136.5,322.5C 136.5,323.5 136.5,324.5 136.5,325.5C 135.662,325.158 135.328,324.492 135.5,323.5C 139.029,321.577 143.029,320.911 147.5,321.5 Z"/></g>
<g><path style="opacity:1" fill="#dcab81" d="M 95.5,325.5 C 96.404,326.209 96.7373,327.209 96.5,328.5C 95.5,328.5 94.5,328.5 93.5,328.5C 93.9321,327.29 94.5987,326.29 95.5,325.5 Z"/></g>
<g><path style="opacity:1" fill="#4b525b" d="M 377.5,432.5 C 357.817,439.561 337.484,442.727 316.5,442C 316.833,441.667 317.167,441.333 317.5,441C 325.402,439.059 333.069,436.559 340.5,433.5C 356.917,427.252 369.084,416.252 377,400.5C 387.749,374.245 392.249,346.912 390.5,318.5C 397.46,322.069 400.127,327.902 398.5,336C 397.913,349.872 396.913,363.705 395.5,377.5C 396.833,377.5 398.167,377.5 399.5,377.5C 403.071,359.694 404.737,341.694 404.5,323.5C 411.5,323.5 418.5,323.5 425.5,323.5C 426.527,355.729 418.027,385.063 400,411.5C 393.536,419.804 386.036,426.804 377.5,432.5 Z"/></g>
<g><path style="opacity:1" fill="#e8b976" d="M 205.5,329.5 C 198.664,329.024 197.331,331.19 201.5,336C 202.448,336.483 203.448,336.649 204.5,336.5C 197.161,339.166 194.495,336.5 196.5,328.5C 199.713,328.19 202.713,328.523 205.5,329.5 Z"/></g>
<g><path style="opacity:1" fill="#ffd369" d="M 205.5,329.5 C 205.802,332.059 205.468,334.393 204.5,336.5C 203.448,336.649 202.448,336.483 201.5,336C 197.331,331.19 198.664,329.024 205.5,329.5 Z"/></g>
<g><path style="opacity:1" fill="#494c54" d="M 71.5,325.5 C 78.128,330.891 85.4613,331.891 93.5,328.5C 94.7341,337.805 96.0674,347.139 97.5,356.5C 97.5,356.833 97.5,357.167 97.5,357.5C 90.6757,358.653 86.3424,362.653 84.5,369.5C 78.6343,355.388 74.301,340.721 71.5,325.5 Z"/></g>
<g><path style="opacity:1" fill="#f8ba5f" d="M 167.5,333.5 C 169.167,333.5 170.833,333.5 172.5,333.5C 172.5,335.5 172.5,337.5 172.5,339.5C 166.422,342.792 163.755,340.792 164.5,333.5C 165.5,333.5 166.5,333.5 167.5,333.5 Z"/></g>
<g><path style="opacity:1" fill="#bf8960" d="M 167.5,333.5 C 169.265,332.539 171.265,332.205 173.5,332.5C 173.802,335.059 173.468,337.393 172.5,339.5C 172.5,337.5 172.5,335.5 172.5,333.5C 170.833,333.5 169.167,333.5 167.5,333.5 Z"/></g>
<g><path style="opacity:1" fill="#4b535c" d="M 416.5,424.5 C 403.816,431.227 390.482,436.06 376.5,439C 378.093,438.051 379.426,436.885 380.5,435.5C 388.584,431.934 395.417,426.6 401,419.5C 422.018,390.745 432.185,358.411 431.5,322.5C 437.833,322.5 444.167,322.5 450.5,322.5C 449.916,334.178 449.082,345.845 448,357.5C 446.334,376.545 440.668,394.212 431,410.5C 426.271,415.397 421.438,420.064 416.5,424.5 Z"/></g>
<g><path style="opacity:1" fill="#e8a663" d="M 154.5,348.5 C 153.104,342.465 152.438,336.465 152.5,330.5C 151.511,334.107 151.177,337.774 151.5,341.5C 150.517,337.702 150.183,333.702 150.5,329.5C 151.833,329.5 153.167,329.5 154.5,329.5C 155.268,336.006 155.268,342.339 154.5,348.5 Z"/></g>
<g><path style="opacity:1" fill="#47505a" d="M 223.5,343.5 C 225.665,374.651 227.665,405.651 229.5,436.5C 220.014,437.494 210.348,437.827 200.5,437.5C 196.353,436.675 192.019,436.175 187.5,436C 192.378,435.538 193.712,433.038 191.5,428.5C 186.279,427.376 186.279,426.542 191.5,426C 189.942,425.79 188.609,425.29 187.5,424.5C 189.199,424.66 190.866,424.494 192.5,424C 193.684,422.855 193.684,421.688 192.5,420.5C 192.4,419.535 192.734,418.368 193.5,417C 193.241,415.739 192.574,414.739 191.5,414C 192.902,412.658 192.569,411.824 190.5,411.5C 187.851,410.538 185.351,410.205 183,410.5C 181.98,411.891 181.147,413.391 180.5,415C 178.481,415.45 176.648,416.283 175,417.5C 174.316,416.216 174.483,415.049 175.5,414C 167.611,410.058 168.277,407.725 177.5,407C 171.984,406.827 166.651,406.327 161.5,405.5C 167.167,405.5 172.833,405.5 178.5,405.5C 178.5,404.5 178.5,403.5 178.5,402.5C 179.302,403.952 179.802,405.618 180,407.5C 180.49,406.207 180.657,404.873 180.5,403.5C 181.822,403.33 182.989,403.663 184,404.5C 184.71,403.027 185.876,402.36 187.5,402.5C 186.766,403.708 186.433,405.041 186.5,406.5C 194.5,406.5 202.5,406.5 210.5,406.5C 210.5,405.167 210.5,403.833 210.5,402.5C 205.5,402.5 200.5,402.5 195.5,402.5C 194.737,401.732 193.737,401.232 192.5,401C 193.167,400.667 193.833,400.333 194.5,400C 192.389,399.155 190.389,398.322 188.5,397.5C 190.5,397.5 192.5,397.5 194.5,397.5C 194.5,395.833 194.5,394.167 194.5,392.5C 191.941,392.198 189.607,392.532 187.5,393.5C 186.624,393.631 185.957,393.298 185.5,392.5C 188.836,391.76 192.17,391.094 195.5,390.5C 196.167,392.833 196.833,395.167 197.5,397.5C 198.833,396.5 200.167,395.5 201.5,394.5C 200.048,393.06 199.048,391.394 198.5,389.5C 199.654,387.981 200.987,385.981 202.5,383.5C 203.251,384.376 203.751,385.376 204,386.5C 208.277,385.717 208.444,384.217 204.5,382C 205.5,381.667 206.5,381.333 207.5,381C 206.584,380.722 205.918,380.222 205.5,379.5C 204.681,376.695 204.181,373.695 204,370.5C 203.667,373.5 203.333,376.5 203,379.5C 202.667,378.5 202.333,377.5 202,376.5C 200.881,377.552 200.381,378.719 200.5,380C 198.5,380.667 196.5,380.667 194.5,380C 194.833,379.667 195.167,379.333 195.5,379C 193.27,378.131 191.604,376.131 190.5,373C 190.82,371.347 191.82,370.347 193.5,370C 190.583,368.701 188.083,366.867 186,364.5C 184.956,365.623 184.29,366.956 184,368.5C 183.5,368 183,367.5 182.5,367C 183.255,364.867 184.588,363.2 186.5,362C 186.167,361.667 185.833,361.333 185.5,361C 190.043,359.372 194.543,357.539 199,355.5C 200.79,354.715 202.457,354.715 204,355.5C 204.81,353.694 205.976,352.194 207.5,351C 207.355,350.228 207.022,349.561 206.5,349C 208.883,348.935 209.55,348.102 208.5,346.5C 210.196,344.44 211.363,342.107 212,339.5C 213.818,337.355 215.318,337.355 216.5,339.5C 218.838,337.989 219.504,338.323 218.5,340.5C 219.332,343.161 220.166,345.828 221,348.5C 221.333,347.5 221.667,346.5 222,345.5C 222.333,348.5 222.667,351.5 223,354.5C 223.499,350.848 223.665,347.182 223.5,343.5 Z"/></g>
<g><path style="opacity:1" fill="#fdc468" d="M 154.5,348.5 C 153.5,348.5 152.5,348.5 151.5,348.5C 151.5,346.167 151.5,343.833 151.5,341.5C 151.177,337.774 151.511,334.107 152.5,330.5C 152.438,336.465 153.104,342.465 154.5,348.5 Z"/></g>
<g><path style="opacity:0.996" fill="#f1ac67" d="M 243.5,339.5 C 247.833,339.5 252.167,339.5 256.5,339.5C 256.756,341.792 256.423,343.959 255.5,346C 251.654,347.508 247.821,347.675 244,346.5C 243.503,344.19 243.337,341.857 243.5,339.5 Z"/></g>
<g><path style="opacity:1" fill="#efb25f" d="M 93.5,328.5 C 94.5,328.5 95.5,328.5 96.5,328.5C 98.2365,333.911 99.2365,339.578 99.5,345.5C 100.074,348.846 100.74,352.179 101.5,355.5C 100.311,356.429 98.9778,356.762 97.5,356.5C 96.0674,347.139 94.7341,337.805 93.5,328.5 Z"/></g>
<g><path style="opacity:1" fill="#63adb7" d="M 183.5,343.5 C 185.167,343.5 186.833,343.5 188.5,343.5C 188.5,345.833 188.5,348.167 188.5,350.5C 186.856,350.714 185.356,350.38 184,349.5C 183.505,347.527 183.338,345.527 183.5,343.5 Z"/></g>
<g><path style="opacity:1" fill="#6b564d" d="M 99.5,345.5 C 100.117,345.611 100.617,345.944 101,346.5C 102.44,350.041 103.274,353.708 103.5,357.5C 102.5,357.5 101.5,357.5 100.5,357.5C 99.5,357.5 98.5,357.5 97.5,357.5C 97.5,357.167 97.5,356.833 97.5,356.5C 98.9778,356.762 100.311,356.429 101.5,355.5C 100.74,352.179 100.074,348.846 99.5,345.5 Z"/></g>
<g><path style="opacity:1" fill="#1f242c" d="M 97.5,357.5 C 98.5,357.5 99.5,357.5 100.5,357.5C 103.003,358.371 105.67,359.037 108.5,359.5C 109.263,361.368 110.263,363.035 111.5,364.5C 111.782,369.927 111.449,375.26 110.5,380.5C 109.833,380.5 109.5,380.833 109.5,381.5C 102.884,382.707 96.2177,382.707 89.5,381.5C 87.2839,377.734 85.6172,373.734 84.5,369.5C 86.3424,362.653 90.6757,358.653 97.5,357.5 Z"/></g>
<g><path style="opacity:1" fill="#ecedee" d="M 131.5,363.5 C 132.451,364.919 132.784,366.585 132.5,368.5C 128.958,368.813 125.625,368.479 122.5,367.5C 122.5,366.167 122.5,364.833 122.5,363.5C 125.5,363.5 128.5,363.5 131.5,363.5 Z"/></g>
<g><path style="opacity:1" fill="#f4ae59" d="M 168.5,364.5 C 168.5,365.833 168.5,367.167 168.5,368.5C 164.774,368.177 161.107,368.511 157.5,369.5C 157.624,370.107 157.957,370.44 158.5,370.5C 158.5,372.167 158.5,373.833 158.5,375.5C 158.5,376.833 158.5,378.167 158.5,379.5C 156.5,379.5 154.5,379.5 152.5,379.5C 152.5,375.5 152.5,371.5 152.5,367.5C 147.833,367.5 143.167,367.5 138.5,367.5C 138.5,366.167 138.5,364.833 138.5,363.5C 142.5,363.5 146.5,363.5 150.5,363.5C 150.5,360.167 150.5,356.833 150.5,353.5C 152.5,353.5 154.5,353.5 156.5,353.5C 156.724,357.179 157.058,360.846 157.5,364.5C 161.167,364.5 164.833,364.5 168.5,364.5 Z"/></g>
<g><path style="opacity:1" fill="#856250" d="M 168.5,364.5 C 169.451,365.919 169.784,367.585 169.5,369.5C 165.629,369.185 161.962,369.518 158.5,370.5C 157.957,370.44 157.624,370.107 157.5,369.5C 161.107,368.511 164.774,368.177 168.5,368.5C 168.5,367.167 168.5,365.833 168.5,364.5 Z"/></g>
<g><path style="opacity:1" fill="#a2b1b9" d="M 96.5,367.5 C 100.485,367.629 101.818,369.463 100.5,373C 98.8659,373.494 97.1992,373.66 95.5,373.5C 95.3253,371.379 95.6586,369.379 96.5,367.5 Z"/></g>
<g><path style="opacity:1" fill="#79f3f6" d="M 205.5,379.5 C 205.5,376.5 205.5,373.5 205.5,370.5C 207.806,370.993 210.139,371.326 212.5,371.5C 212.5,374.167 212.5,376.833 212.5,379.5C 210.167,379.5 207.833,379.5 205.5,379.5 Z"/></g>
<g><path style="opacity:1" fill="#434c56" d="M 177.5,383.5 C 174.833,383.5 172.167,383.5 169.5,383.5C 169.33,384.822 169.663,385.989 170.5,387C 172.81,387.497 175.143,387.663 177.5,387.5C 177.62,388.586 178.287,389.253 179.5,389.5C 184.722,388.908 189.888,388.242 195,387.5C 196.016,388.634 196.683,388.301 197,386.5C 197.232,387.737 197.732,388.737 198.5,389.5C 199.048,391.394 200.048,393.06 201.5,394.5C 200.167,395.5 198.833,396.5 197.5,397.5C 196.833,395.167 196.167,392.833 195.5,390.5C 192.17,391.094 188.836,391.76 185.5,392.5C 185.957,393.298 186.624,393.631 187.5,393.5C 187.232,395.099 187.566,396.432 188.5,397.5C 190.389,398.322 192.389,399.155 194.5,400C 193.833,400.333 193.167,400.667 192.5,401C 193.737,401.232 194.737,401.732 195.5,402.5C 192.833,402.5 190.167,402.5 187.5,402.5C 185.876,402.36 184.71,403.027 184,404.5C 182.989,403.663 181.822,403.33 180.5,403.5C 180.657,404.873 180.49,406.207 180,407.5C 179.802,405.618 179.302,403.952 178.5,402.5C 164.464,402.496 150.464,401.83 136.5,400.5C 136.33,401.822 136.663,402.989 137.5,404C 145.49,404.73 153.49,405.23 161.5,405.5C 166.651,406.327 171.984,406.827 177.5,407C 168.277,407.725 167.611,410.058 175.5,414C 174.483,415.049 174.316,416.216 175,417.5C 176.648,416.283 178.481,415.45 180.5,415C 181.147,413.391 181.98,411.891 183,410.5C 185.351,410.205 187.851,410.538 190.5,411.5C 192.569,411.824 192.902,412.658 191.5,414C 192.574,414.739 193.241,415.739 193.5,417C 192.734,418.368 192.4,419.535 192.5,420.5C 190.167,420.5 187.833,420.5 185.5,420.5C 185.157,422.483 185.824,423.817 187.5,424.5C 188.609,425.29 189.942,425.79 191.5,426C 186.279,426.542 186.279,427.376 191.5,428.5C 193.712,433.038 192.378,435.538 187.5,436C 192.019,436.175 196.353,436.675 200.5,437.5C 184.791,437.468 169.124,436.635 153.5,435C 146.733,434.23 140.4,432.396 134.5,429.5C 135.573,428.749 135.74,427.749 135,426.5C 127.152,413.805 120.652,400.471 115.5,386.5C 116.688,385.316 117.855,385.316 119,386.5C 120.758,385.531 121.258,384.364 120.5,383C 122,379.989 122.834,380.489 123,384.5C 123.21,382.942 123.71,381.609 124.5,380.5C 124.286,382.144 124.62,383.644 125.5,385C 129.152,385.499 132.818,385.665 136.5,385.5C 136.634,383.708 136.301,382.042 135.5,380.5C 136.117,380.389 136.617,380.056 137,379.5C 140.459,382.116 143.959,382.116 147.5,379.5C 148.815,381.316 150.315,382.983 152,384.5C 153.343,383.786 154.676,384.12 156,385.5C 156.684,383.641 157.684,381.974 159,380.5C 159.78,378.613 159.613,376.946 158.5,375.5C 158.5,373.833 158.5,372.167 158.5,370.5C 161.962,369.518 165.629,369.185 169.5,369.5C 169.784,367.585 169.451,365.919 168.5,364.5C 166.369,363.686 164.036,363.186 161.5,363C 162,362.5 162.5,362 163,361.5C 165.333,362.167 167.667,362.833 170,363.5C 169.07,370.477 171.237,376.144 176.5,380.5C 176.911,379.738 177.077,378.738 177,377.5C 178.43,377.694 179.93,377.694 181.5,377.5C 181.833,378 182.167,378.5 182.5,379C 181.191,381.025 179.525,382.525 177.5,383.5 Z"/></g>
<g><path style="opacity:1" fill="#efeff0" d="M 110.5,380.5 C 113.541,381.199 115.208,383.199 115.5,386.5C 120.652,400.471 127.152,413.805 135,426.5C 135.74,427.749 135.573,428.749 134.5,429.5C 133.391,429.443 132.391,429.11 131.5,428.5C 121.51,414.147 114.177,398.48 109.5,381.5C 109.5,380.833 109.833,380.5 110.5,380.5 Z"/></g>
<g><path style="opacity:1" fill="#e8e9ea" d="M 124.5,380.5 C 128.167,380.5 131.833,380.5 135.5,380.5C 136.301,382.042 136.634,383.708 136.5,385.5C 132.818,385.665 129.152,385.499 125.5,385C 124.62,383.644 124.286,382.144 124.5,380.5 Z"/></g>
<g><path style="opacity:1" fill="#eceded" d="M 138.5,382.5 C 140.857,382.337 143.19,382.503 145.5,383C 145.957,383.414 146.291,383.914 146.5,384.5C 143.914,385.48 141.247,385.813 138.5,385.5C 138.5,384.5 138.5,383.5 138.5,382.5 Z"/></g>
<g><path style="opacity:1" fill="#efeeee" d="M 177.5,383.5 C 178.686,384.961 178.686,386.295 177.5,387.5C 175.143,387.663 172.81,387.497 170.5,387C 169.663,385.989 169.33,384.822 169.5,383.5C 172.167,383.5 174.833,383.5 177.5,383.5 Z"/></g>
<g><path style="opacity:1" fill="#50575e" d="M 323.5,385.5 C 330.285,388.601 335.952,393.268 340.5,399.5C 332.193,400.498 323.86,400.831 315.5,400.5C 316.861,394.776 319.528,389.776 323.5,385.5 Z"/></g>
<g><path style="opacity:1" fill="#434a54" d="M 89.5,381.5 C 96.2177,382.707 102.884,382.707 109.5,381.5C 114.177,398.48 121.51,414.147 131.5,428.5C 125.704,427.597 120.371,425.597 115.5,422.5C 115.938,422.565 116.272,422.399 116.5,422C 106.621,409.073 97.6215,395.573 89.5,381.5 Z"/></g>
<g><path style="opacity:0.098" fill="#e38a50" d="M 457.5,347.5 C 457.5,350.5 457.5,353.5 457.5,356.5C 457.242,380.497 450.742,402.497 438,422.5C 424.593,437.956 407.76,445.956 387.5,446.5C 396.195,444.537 404.862,442.037 413.5,439C 417.411,437.556 420.744,435.389 423.5,432.5C 425.255,431.928 426.922,431.094 428.5,430C 437.06,422.097 443.226,412.597 447,401.5C 452.782,383.81 456.282,365.81 457.5,347.5 Z"/></g>
<g><path style="opacity:1" fill="#202128" d="M 269.5,350.5 C 270.158,351.793 270.492,353.293 270.5,355C 269.724,359.156 269.058,363.323 268.5,367.5C 265.646,379.562 262.146,391.562 258,403.5C 252.861,415.115 246.694,426.115 239.5,436.5C 251.504,438.997 261.838,435.997 270.5,427.5C 271.55,427.905 271.55,428.571 270.5,429.5C 271.766,430.362 273.099,431.029 274.5,431.5C 274.196,432.15 273.863,432.817 273.5,433.5C 275.333,433.833 277.167,434.167 279,434.5C 293.87,432.664 308.703,430.664 323.5,428.5C 325.948,429.473 328.615,429.806 331.5,429.5C 331.67,430.822 331.337,431.989 330.5,433C 332.101,433.273 333.601,433.773 335,434.5C 336.441,433.74 337.941,433.074 339.5,432.5C 340.107,432.624 340.44,432.957 340.5,433.5C 333.069,436.559 325.402,439.059 317.5,441C 317.167,441.333 316.833,441.667 316.5,442C 337.484,442.727 357.817,439.561 377.5,432.5C 377.5,434.5 378.5,435.5 380.5,435.5C 379.426,436.885 378.093,438.051 376.5,439C 390.482,436.06 403.816,431.227 416.5,424.5C 415.27,426.297 414.604,428.297 414.5,430.5C 412.284,430.275 410.617,431.108 409.5,433C 412.709,431.757 415.376,432.59 417.5,435.5C 418.167,434.5 418.833,433.5 419.5,432.5C 420.726,433.363 422.06,433.363 423.5,432.5C 420.744,435.389 417.411,437.556 413.5,439C 404.862,442.037 396.195,444.537 387.5,446.5C 387.167,446.5 386.833,446.5 386.5,446.5C 316.171,447.703 245.838,447.703 175.5,446.5C 174.5,446.5 173.5,446.5 172.5,446.5C 160.214,445.442 147.88,443.775 135.5,441.5C 135.389,440.883 135.056,440.383 134.5,440C 123.571,437.369 113.904,432.369 105.5,425C 91.7394,424.965 78.0727,424.298 64.5,423C 60.8524,419.207 59.3524,414.707 60,409.5C 63.2609,401.774 67.0942,394.441 71.5,387.5C 72.6256,386.286 73.9589,385.286 75.5,384.5C 78.8716,387.277 82.3716,389.943 86,392.5C 88.7393,398.694 92.5726,403.027 97.5,405.5C 102.843,411.843 108.843,417.509 115.5,422.5C 120.371,425.597 125.704,427.597 131.5,428.5C 132.391,429.11 133.391,429.443 134.5,429.5C 140.4,432.396 146.733,434.23 153.5,435C 169.124,436.635 184.791,437.468 200.5,437.5C 210.348,437.827 220.014,437.494 229.5,436.5C 230.167,436.167 230.833,435.833 231.5,435.5C 234.731,433.78 237.564,431.447 240,428.5C 252.01,405.476 260.677,381.142 266,355.5C 267.045,354.627 267.878,353.627 268.5,352.5C 268.328,351.508 268.662,350.842 269.5,350.5 Z"/></g>
<g><path style="opacity:1" fill="#dfdbd7" d="M 192.5,420.5 C 193.684,421.688 193.684,422.855 192.5,424C 190.866,424.494 189.199,424.66 187.5,424.5C 185.824,423.817 185.157,422.483 185.5,420.5C 187.833,420.5 190.167,420.5 192.5,420.5 Z"/></g>
<g><path style="opacity:1" fill="#dee2e3" d="M 167.5,419.5 C 168.833,419.5 170.167,419.5 171.5,419.5C 171.5,420.833 171.5,422.167 171.5,423.5C 168.5,423.833 167.167,422.5 167.5,419.5 Z"/></g>
<g><path style="opacity:1" fill="#f3f2f1" d="M 158.5,418.5 C 159.5,418.5 160.5,418.5 161.5,418.5C 161.5,419.5 161.5,420.5 161.5,421.5C 160.5,421.5 159.5,421.5 158.5,421.5C 158.5,420.5 158.5,419.5 158.5,418.5 Z"/></g>
<g><path style="opacity:1" fill="#eeeeee" d="M 149.5,417.5 C 150.434,418.568 150.768,419.901 150.5,421.5C 147.287,421.81 144.287,421.477 141.5,420.5C 141.5,419.5 141.5,418.5 141.5,417.5C 144.167,417.5 146.833,417.5 149.5,417.5 Z"/></g>
<g><path style="opacity:1" fill="#949ca3" d="M 149.5,417.5 C 146.833,417.5 144.167,417.5 141.5,417.5C 141.5,418.5 141.5,419.5 141.5,420.5C 140.566,419.432 140.232,418.099 140.5,416.5C 143.713,416.19 146.713,416.523 149.5,417.5 Z"/></g>
<g><path style="opacity:1" fill="#f0eeee" d="M 156.5,409.5 C 158.167,409.5 159.833,409.5 161.5,409.5C 161.5,410.5 161.5,411.5 161.5,412.5C 159.833,412.5 158.167,412.5 156.5,412.5C 156.5,411.5 156.5,410.5 156.5,409.5 Z"/></g>
<g><path style="opacity:1" fill="#5b5c63" d="M 87.5,408.5 C 92.7911,409.124 95.7911,412.124 96.5,417.5C 86.7881,417.443 77.1215,417.609 67.5,418C 74.3481,415.075 81.0148,411.908 87.5,408.5 Z"/></g>
<g><path style="opacity:1" fill="#e9edee" d="M 187.5,402.5 C 190.167,402.5 192.833,402.5 195.5,402.5C 200.5,402.5 205.5,402.5 210.5,402.5C 210.5,403.833 210.5,405.167 210.5,406.5C 202.5,406.5 194.5,406.5 186.5,406.5C 186.433,405.041 186.766,403.708 187.5,402.5 Z"/></g>
<g><path style="opacity:1" fill="#505a63" d="M 75.5,389.5 C 80.05,393.073 83.05,397.74 84.5,403.5C 78.4891,405.338 72.8224,408.004 67.5,411.5C 66.3691,409.926 66.2025,408.259 67,406.5C 70.0944,400.922 72.9277,395.256 75.5,389.5 Z"/></g>
<g><path style="opacity:1" fill="#f1f4f5" d="M 178.5,402.5 C 178.5,403.5 178.5,404.5 178.5,405.5C 172.833,405.5 167.167,405.5 161.5,405.5C 153.49,405.23 145.49,404.73 137.5,404C 136.663,402.989 136.33,401.822 136.5,400.5C 150.464,401.83 164.464,402.496 178.5,402.5 Z"/></g>
<g><path style="opacity:1" fill="#e4e6e8" d="M 188.5,397.5 C 187.566,396.432 187.232,395.099 187.5,393.5C 189.607,392.532 191.941,392.198 194.5,392.5C 194.5,394.167 194.5,395.833 194.5,397.5C 192.5,397.5 190.5,397.5 188.5,397.5 Z"/></g>
<g><path style="opacity:1" fill="#84929b" d="M 158.5,389.5 C 159.479,392.625 159.813,395.958 159.5,399.5C 157.517,399.843 156.183,399.176 155.5,397.5C 156.15,397.804 156.817,398.137 157.5,398.5C 158.484,395.572 158.817,392.572 158.5,389.5 Z"/></g>
<g><path style="opacity:1" fill="#eff2f3" d="M 158.5,389.5 C 158.817,392.572 158.484,395.572 157.5,398.5C 156.817,398.137 156.15,397.804 155.5,397.5C 155.5,394.833 155.5,392.167 155.5,389.5C 156.5,389.5 157.5,389.5 158.5,389.5 Z"/></g>
<g><path style="opacity:1" fill="#efdec2" d="M 185.5,384.5 C 188.167,384.5 190.833,384.5 193.5,384.5C 193.5,385.5 193.5,386.5 193.5,387.5C 190.833,387.5 188.167,387.5 185.5,387.5C 185.5,386.5 185.5,385.5 185.5,384.5 Z"/></g>
<g><path style="opacity:0.004" fill="#fc9851" d="M 97.5,429.5 C 98.2506,428.427 99.2506,428.26 100.5,429C 99.552,429.483 98.552,429.649 97.5,429.5 Z"/></g>
<g><path style="opacity:0.026" fill="#f29352" d="M 135.5,441.5 C 147.88,443.775 160.214,445.442 172.5,446.5C 172.5,446.833 172.5,447.167 172.5,447.5C 171.735,447.923 170.902,448.257 170,448.5C 163.294,446.86 156.461,446.027 149.5,446C 144.27,445.533 139.603,444.033 135.5,441.5 Z"/></g>
<g><path style="opacity:0.184" fill="#ec8e52" d="M 175.5,446.5 C 245.838,447.703 316.171,447.703 386.5,446.5C 386.389,447.117 386.056,447.617 385.5,448C 381.961,448.282 378.461,448.782 375,449.5C 361.776,448.704 348.442,448.37 335,448.5C 332.583,449.352 330.083,450.019 327.5,450.5C 321.155,449.193 314.655,449.193 308,450.5C 304.136,450.67 300.469,450.003 297,448.5C 269.652,449.804 241.319,449.804 212,448.5C 210.899,450.394 209.566,451.061 208,450.5C 207.311,449.643 206.478,448.977 205.5,448.5C 202.641,449.28 199.641,449.613 196.5,449.5C 188.429,447.575 180.429,446.908 172.5,447.5C 173.791,447.737 174.791,447.404 175.5,446.5 Z"/></g>
</svg>
